<?xml version="1.0" encoding="UTF-8"?>
<svg xmlns="http://www.w3.org/2000/svg" xmlns:xlink="http://www.w3.org/1999/xlink" width="512pt" height="512pt" viewBox="0 0 512 512" version="1.1">
<g id="surface18863112">
<path style=" stroke:none;fill-rule:nonzero;fill:rgb(17.647059%,17.647059%,17.647059%);fill-opacity:1;" d="M 256 48 C 141.296875 48 48 141.3125 48 256 L 128 256 C 128 185.3125 185.3125 128 256 128 C 326.6875 128 384 185.3125 384 256 C 384 326.6875 326.6875 384 256 384 L 256 464 C 370.703125 464 464 370.6875 464 256 C 464 141.3125 370.703125 48 256 48 Z M 256 384 L 256 288 L 160 288 L 160 384 Z M 160 384 L 96 384 L 96 448 L 160 448 Z M 96 384 L 96 336 L 48 336 L 48 384 Z M 96 384 "/>
</g>
</svg>
