<?xml version="1.0"?>
<svg xmlns="http://www.w3.org/2000/svg" fill="#272C3E" viewBox="0 0 512 512" width="512" height="512"><g id="outline"><path d="M425.229,196.85l-72.113-72.115a8,8,0,0,0-13.564,6.874l6.629,43.085a146.7,146.7,0,0,0-44.976,7.4C296.721,107.4,234.54,48,158.737,48,80.031,48,16,112.031,16,190.737a142.643,142.643,0,0,0,67.431,121.27l69.649,69.65a8,8,0,0,0,13.565-6.874l-6.358-41.317a142.232,142.232,0,0,0,39.815-6.113c2.752,78.907,67.79,142.254,147.357,142.254,81.309,0,147.458-66.149,147.458-147.459a147.359,147.359,0,0,0-69.688-125.3ZM158.737,317.474c-2.349,0-4.824-.074-7.353-.218a8,8,0,0,0-8.363,9.2l4.093,26.6-53.029-53.03a7.985,7.985,0,0,0-1.477-1.163,126.758,126.758,0,1,1,66.129,18.6ZM347.459,453.607C274.973,453.607,216,394.635,216,322.148c0-.228.009-.454.01-.681a143.01,143.01,0,0,0,85.215-122.409,130.714,130.714,0,0,1,46.234-8.369c2.441,0,5.006.077,7.624.227a8,8,0,0,0,8.365-9.2l-4.366-28.383,55.492,55.494a8.009,8.009,0,0,0,1.477,1.163,130.688,130.688,0,0,1,62.866,112.162C478.917,394.635,419.945,453.607,347.459,453.607Z"/><path d="M351.283,268.689a8,8,0,0,0-14.566,0l-40,88a8,8,0,0,0,14.566,6.622L320.061,344h47.878l8.778,19.311a8,8,0,0,0,14.566-6.622ZM327.333,328,344,291.333,360.667,328Z"/><path d="M194.3,198.514a64.367,64.367,0,0,0-14.624-9.448c.044-1.095.065-2.2.065-3.3V176a8,8,0,0,0-16,0v8.029a63.961,63.961,0,0,0-16-.783V160h40a8,8,0,0,0,0-16h-40V120a8,8,0,0,0-16,0v24h-32a8,8,0,0,0,0,16h32v26.57a64.256,64.256,0,0,0-16.394,8.452,31.573,31.573,0,0,0-6.3,45.413,31.573,31.573,0,0,0,46.977,2.6,80.5,80.5,0,0,0,21.22-37.163,48.542,48.542,0,0,1,6.648,4.789,19.62,19.62,0,0,1,1.1,28.773A8,8,0,0,0,196.3,250.749a35.624,35.624,0,0,0-2.007-52.235Zm-72.763,31.925a15.571,15.571,0,0,1,3.11-22.4,48.349,48.349,0,0,1,7.094-4.2v32.3A15.351,15.351,0,0,1,121.534,230.439Zm26.2-1.969V199.315a47.552,47.552,0,0,1,14.44.711A64.386,64.386,0,0,1,147.738,228.47Z"/></g></svg>
