<svg xmlns="http://www.w3.org/2000/svg" viewBox="0 0 400 300"><g id="_145_404_page_not_found_flatline" data-name="#145_404_page_not_found_flatline"><path d="M107.51,76.13H299.72A14.38,14.38,0,0,1,314.1,90.51V207.9a0,0,0,0,1,0,0h-221a0,0,0,0,1,0,0V90.51A14.38,14.38,0,0,1,107.51,76.13Z" fill="#fff"/><path d="M314.1,208.35h-221a.45.45,0,0,1-.45-.45V90.51a14.85,14.85,0,0,1,14.84-14.84H299.72a14.86,14.86,0,0,1,14.84,14.84V207.9A.46.46,0,0,1,314.1,208.35Zm-220.52-.91H313.64V90.51a13.93,13.93,0,0,0-13.92-13.92H107.51A13.94,13.94,0,0,0,93.58,90.51Z" fill="#231f20"/><rect x="106.94" y="87.94" width="193.35" height="119.96" fill="#687093"/><path d="M332.52,208.41H74.7a.52.52,0,1,1,0-1H332.52a.52.52,0,1,1,0,1Z" fill="#231f20"/><path d="M70.14,207.9H337.08a0,0,0,0,1,0,0v0a16,16,0,0,1-16,16h-235a16,16,0,0,1-16-16v0a0,0,0,0,1,0,0Z" fill="#fff"/><path d="M321.11,224.33h-235A16.45,16.45,0,0,1,69.69,207.9a.46.46,0,0,1,.45-.46H337.08a.47.47,0,0,1,.46.46A16.45,16.45,0,0,1,321.11,224.33Zm-250.5-16a15.53,15.53,0,0,0,15.51,15.06h235a15.54,15.54,0,0,0,15.51-15.06Z" fill="#231f20"/><rect x="181.97" y="207.9" width="43.29" height="3.99"/><circle cx="115.98" cy="96.66" r="3.23" fill="#231f20"/><circle cx="126.92" cy="96.66" r="3.23" fill="#fff"/><circle cx="137.87" cy="96.66" r="3.23" fill="#fff"/><path d="M168.74,146.07a1.64,1.64,0,0,1-1.17-.48,1.67,1.67,0,0,1,0-2.34l12.54-12.54a1.65,1.65,0,1,1,2.33,2.34L169.9,145.59A1.64,1.64,0,0,1,168.74,146.07Z" fill="#fff"/><path d="M181.28,146.07a1.66,1.66,0,0,1-1.17-.48l-12.54-12.54a1.65,1.65,0,0,1,2.33-2.34l12.54,12.54a1.65,1.65,0,0,1-1.16,2.82Z" fill="#fff"/><path d="M226,146.07a1.65,1.65,0,0,1-1.17-2.82l12.54-12.54a1.65,1.65,0,1,1,2.33,2.34l-12.54,12.54A1.64,1.64,0,0,1,226,146.07Z" fill="#fff"/><path d="M238.49,146.07a1.64,1.64,0,0,1-1.17-.48l-12.54-12.54a1.65,1.65,0,1,1,2.33-2.34l12.54,12.54a1.65,1.65,0,0,1-1.16,2.82Z" fill="#fff"/><path d="M300.15,105.08H107.07a.5.5,0,0,1-.5-.5.5.5,0,0,1,.5-.5H300.15a.5.5,0,0,1,.5.5A.5.5,0,0,1,300.15,105.08Z" fill="#fff"/><path d="M146.59,174.32a2,2,0,0,1-.79-3.91,147.71,147.71,0,0,1,115.62,0,2,2,0,1,1-1.58,3.75,143.72,143.72,0,0,0-112.46,0A2.18,2.18,0,0,1,146.59,174.32Z" fill="#fff"/><rect x="49.58" y="138.98" width="76.9" height="47.86" rx="7.1" fill="#fff"/><path d="M119.39,187.34H56.68a7.61,7.61,0,0,1-7.6-7.6V146.08a7.61,7.61,0,0,1,7.6-7.6h62.71a7.61,7.61,0,0,1,7.6,7.6v33.66A7.61,7.61,0,0,1,119.39,187.34ZM56.68,139.48a6.61,6.61,0,0,0-6.6,6.6v33.66a6.61,6.61,0,0,0,6.6,6.6h62.71a6.61,6.61,0,0,0,6.6-6.6V146.08a6.61,6.61,0,0,0-6.6-6.6Z" fill="#d1d3d4"/><path d="M74.33,151.39h3.22a4,4,0,0,1,1.45.23,2.35,2.35,0,0,1,.9.56,1.91,1.91,0,0,1,.46.77,2.65,2.65,0,0,1,0,1.64,1.91,1.91,0,0,1-.46.77,2.35,2.35,0,0,1-.9.56,4,4,0,0,1-1.45.23h-2v3.74H74.33Zm1.24,3.75H77.2a4.37,4.37,0,0,0,.72-.06,1.94,1.94,0,0,0,.63-.19,1.14,1.14,0,0,0,.45-.42,1.53,1.53,0,0,0,0-1.4,1.14,1.14,0,0,0-.45-.42,1.94,1.94,0,0,0-.63-.19,4.37,4.37,0,0,0-.72-.06H75.57Z"/><path d="M81.73,154.9a3.16,3.16,0,0,1,1.14-.63,4.15,4.15,0,0,1,1.29-.21,3.87,3.87,0,0,1,1.15.15,2.51,2.51,0,0,1,.8.42,1.67,1.67,0,0,1,.46.61,1.78,1.78,0,0,1,.15.71v2.91c0,.2,0,.38,0,.55s0,.33,0,.48h-1c0-.29,0-.58,0-.86h0a2.27,2.27,0,0,1-.92.78,3.46,3.46,0,0,1-2,.12,2.05,2.05,0,0,1-.68-.33,1.56,1.56,0,0,1-.46-.53,1.58,1.58,0,0,1-.17-.74,1.5,1.5,0,0,1,.27-.92,2.06,2.06,0,0,1,.72-.61,3.7,3.7,0,0,1,1.08-.34,8.94,8.94,0,0,1,1.31-.1h.85v-.24a1.11,1.11,0,0,0-.09-.43,1.25,1.25,0,0,0-.27-.39,1.28,1.28,0,0,0-.45-.28,2.06,2.06,0,0,0-.65-.1,2.61,2.61,0,0,0-.59.06,2.76,2.76,0,0,0-.46.15,2.22,2.22,0,0,0-.37.21l-.32.23ZM85,157.15a8.4,8.4,0,0,0-.85,0,3.08,3.08,0,0,0-.78.16,1.6,1.6,0,0,0-.59.33.75.75,0,0,0-.22.56.77.77,0,0,0,.35.7,1.81,1.81,0,0,0,1,.22,2,2,0,0,0,.81-.15,1.49,1.49,0,0,0,.84-.92,2,2,0,0,0,.09-.59v-.36Z"/><path d="M94.55,159.84a2.83,2.83,0,0,1-.24,1.18,2.6,2.6,0,0,1-.68.93,3,3,0,0,1-1.06.6,4,4,0,0,1-1.37.22,5.49,5.49,0,0,1-1.61-.23,3.91,3.91,0,0,1-1.39-.79l.79-.91a3.37,3.37,0,0,0,1,.69,3.11,3.11,0,0,0,1.21.23,3,3,0,0,0,1.07-.17,2,2,0,0,0,.68-.45,1.64,1.64,0,0,0,.35-.63,2.57,2.57,0,0,0,.11-.72V159h0a2.07,2.07,0,0,1-.91.77,3.15,3.15,0,0,1-1.21.24,3.39,3.39,0,0,1-1.25-.22,3.11,3.11,0,0,1-1-.61,2.92,2.92,0,0,1-.88-2.08,3.2,3.2,0,0,1,.22-1.17,2.78,2.78,0,0,1,1.61-1.59,3.37,3.37,0,0,1,1.29-.23,3.05,3.05,0,0,1,1.21.25,2.14,2.14,0,0,1,.92.71h0v-.82h1.16Zm-3.18-4.77a2.24,2.24,0,0,0-.84.15,1.84,1.84,0,0,0-.63.4,1.79,1.79,0,0,0-.4.63,2.07,2.07,0,0,0-.15.8,1.84,1.84,0,0,0,.55,1.38,2.34,2.34,0,0,0,2.94,0,1.81,1.81,0,0,0,.55-1.38,2.28,2.28,0,0,0-.14-.8,1.81,1.81,0,0,0-.41-.63,1.84,1.84,0,0,0-.63-.4A2.24,2.24,0,0,0,91.37,155.07Z"/><path d="M97.19,157.44a1.4,1.4,0,0,0,.17.68,1.76,1.76,0,0,0,.46.52,2.06,2.06,0,0,0,.66.34,2.54,2.54,0,0,0,.78.12,1.8,1.8,0,0,0,.94-.24,3,3,0,0,0,.74-.61l.88.62A3.33,3.33,0,0,1,99.1,160a3.64,3.64,0,0,1-1.31-.22,3.28,3.28,0,0,1-1-.63,2.74,2.74,0,0,1-.62-1,3.1,3.1,0,0,1-.22-1.18,2.94,2.94,0,0,1,.24-1.19,2.85,2.85,0,0,1,.66-.94,2.94,2.94,0,0,1,1-.63,3.68,3.68,0,0,1,2.64,0,2.86,2.86,0,0,1,.93.69,2.81,2.81,0,0,1,.52,1,3.69,3.69,0,0,1,.16,1.09v.38Zm3.67-.86a2.28,2.28,0,0,0-.12-.66,1.54,1.54,0,0,0-.33-.52,1.48,1.48,0,0,0-.55-.35,2,2,0,0,0-.77-.13,1.94,1.94,0,0,0-.78.15,1.83,1.83,0,0,0-.6.39,1.69,1.69,0,0,0-.39.54,1.36,1.36,0,0,0-.13.58Z"/><path d="M57.2,165.79h1.63l5,7h0v-7h1.24v8.5H63.56l-5.09-7h0v7H57.2Z"/><path d="M66.9,171.45a2.7,2.7,0,0,1,.25-1.17,3.22,3.22,0,0,1,.69-.95,3.43,3.43,0,0,1,1-.64,3.55,3.55,0,0,1,1.28-.23,3.63,3.63,0,0,1,1.28.23,3.38,3.38,0,0,1,1,.64,3.22,3.22,0,0,1,.69.95,2.7,2.7,0,0,1,.25,1.17,2.77,2.77,0,0,1-.25,1.17,2.94,2.94,0,0,1-.69.94,3.38,3.38,0,0,1-1,.64,3.42,3.42,0,0,1-1.28.23,3.35,3.35,0,0,1-1.28-.23,3.43,3.43,0,0,1-1-.64,2.94,2.94,0,0,1-.69-.94A2.77,2.77,0,0,1,66.9,171.45Zm1.24,0a2.26,2.26,0,0,0,.14.79,1.84,1.84,0,0,0,.4.63,1.9,1.9,0,0,0,.64.41,2.43,2.43,0,0,0,1.68,0,1.86,1.86,0,0,0,.63-.41,1.7,1.7,0,0,0,.4-.63,2.33,2.33,0,0,0,0-1.59,1.79,1.79,0,0,0-.4-.63,1.84,1.84,0,0,0-.63-.4,2.43,2.43,0,0,0-1.68,0,1.88,1.88,0,0,0-.64.4,1.94,1.94,0,0,0-.4.63A2.28,2.28,0,0,0,68.14,171.45Z"/><path d="M78.16,169.54H76.49v2.58c0,.16,0,.32,0,.47a1.3,1.3,0,0,0,.1.42.64.64,0,0,0,.26.3.92.92,0,0,0,.51.12,3.28,3.28,0,0,0,.43,0,1.34,1.34,0,0,0,.4-.13v1a1.74,1.74,0,0,1-.54.15,3.87,3.87,0,0,1-.51,0,2.45,2.45,0,0,1-1-.17,1.23,1.23,0,0,1-.54-.45,1.31,1.31,0,0,1-.21-.62q0-.34,0-.69v-3H74v-.94h1.35V167h1.16v1.59h1.67Z"/><path d="M83.55,165.79H89.3v1.08H84.79v2.67H89v1.08h-4.2v3.67H83.55Z"/><path d="M90.38,171.45a2.7,2.7,0,0,1,.25-1.17,3.22,3.22,0,0,1,.69-.95,3.38,3.38,0,0,1,1-.64,3.63,3.63,0,0,1,1.28-.23,3.55,3.55,0,0,1,1.28.23,3.43,3.43,0,0,1,1,.64,3.22,3.22,0,0,1,.69.95,2.7,2.7,0,0,1,.25,1.17,2.77,2.77,0,0,1-.25,1.17,2.94,2.94,0,0,1-.69.94,3.43,3.43,0,0,1-1,.64,3.35,3.35,0,0,1-1.28.23,3.42,3.42,0,0,1-1.28-.23,3.38,3.38,0,0,1-1-.64,2.94,2.94,0,0,1-.69-.94A2.77,2.77,0,0,1,90.38,171.45Zm1.24,0a2.26,2.26,0,0,0,.14.79,1.7,1.7,0,0,0,.4.63,1.86,1.86,0,0,0,.63.41,2.43,2.43,0,0,0,1.68,0,1.9,1.9,0,0,0,.64-.41,1.84,1.84,0,0,0,.4-.63,2.33,2.33,0,0,0,0-1.59,1.94,1.94,0,0,0-.4-.63,1.88,1.88,0,0,0-.64-.4,2.43,2.43,0,0,0-1.68,0,1.84,1.84,0,0,0-.63.4,1.79,1.79,0,0,0-.4.63A2.28,2.28,0,0,0,91.62,171.45Z"/><path d="M103.78,174.29h-1.16v-.88h0a1.61,1.61,0,0,1-.76.74,2.65,2.65,0,0,1-1.25.28,3,3,0,0,1-.86-.12,2.18,2.18,0,0,1-.7-.39,1.92,1.92,0,0,1-.49-.68,2.45,2.45,0,0,1-.18-1V168.6h1.17V172a1.73,1.73,0,0,0,.11.68,1.29,1.29,0,0,0,.31.46,1.24,1.24,0,0,0,.45.25,1.82,1.82,0,0,0,.52.08,2.15,2.15,0,0,0,.68-.11,1.54,1.54,0,0,0,.54-.34,1.78,1.78,0,0,0,.36-.6,2.41,2.41,0,0,0,.13-.85V168.6h1.16Z"/><path d="M105.54,168.6h1.16v.88h0a1.65,1.65,0,0,1,.76-.74,2.66,2.66,0,0,1,1.26-.28,2.94,2.94,0,0,1,.84.12,2,2,0,0,1,.71.39,1.89,1.89,0,0,1,.49.68,2.45,2.45,0,0,1,.18,1v3.66h-1.16v-3.36a1.76,1.76,0,0,0-.12-.68,1.16,1.16,0,0,0-.31-.45,1.26,1.26,0,0,0-.45-.26,1.77,1.77,0,0,0-.52-.07,2.09,2.09,0,0,0-.67.1,1.52,1.52,0,0,0-.55.35,1.64,1.64,0,0,0-.36.59,2.66,2.66,0,0,0-.13.85v2.93h-1.16Z"/><path d="M118.87,174.29h-1.16v-.82h0a2.14,2.14,0,0,1-.92.71,3.05,3.05,0,0,1-1.21.25,3.49,3.49,0,0,1-1.29-.22,3,3,0,0,1-1-.64,2.92,2.92,0,0,1-.63-.95,3,3,0,0,1-.22-1.17,3.11,3.11,0,0,1,.22-1.19,2.78,2.78,0,0,1,.63-.94,2.85,2.85,0,0,1,1-.63,3.3,3.3,0,0,1,1.29-.23,2.9,2.9,0,0,1,1.24.26,2,2,0,0,1,.89.7h0v-4.2h1.16Zm-3.18-.86a2.24,2.24,0,0,0,.84-.15,1.86,1.86,0,0,0,.63-.41,1.7,1.7,0,0,0,.4-.63,2.18,2.18,0,0,0,0-1.59,1.79,1.79,0,0,0-.4-.63,1.84,1.84,0,0,0-.63-.4,2.43,2.43,0,0,0-1.68,0,1.84,1.84,0,0,0-.63.4,1.81,1.81,0,0,0-.41.63,2.33,2.33,0,0,0,0,1.59,1.72,1.72,0,0,0,.41.63,1.86,1.86,0,0,0,.63.41A2.24,2.24,0,0,0,115.69,173.43Z"/><rect x="277.47" y="113.8" width="72.94" height="32.87" rx="5.73" fill="#fff"/><path d="M344.69,147.16H283.2a6.24,6.24,0,0,1-6.23-6.23v-21.4a6.24,6.24,0,0,1,6.23-6.23h61.49a6.24,6.24,0,0,1,6.23,6.23v21.4A6.24,6.24,0,0,1,344.69,147.16ZM283.2,114.3a5.23,5.23,0,0,0-5.23,5.23v21.4a5.23,5.23,0,0,0,5.23,5.23h61.49a5.23,5.23,0,0,0,5.23-5.23v-21.4a5.23,5.23,0,0,0-5.23-5.23Z" fill="#d1d3d4"/><path d="M300,135.17H291.4v-3l6.54-9.63h5.66v9.63h2.07v3H303.6v2.75H300Zm0-3v-7.34h0l-5,7.34Z"/><path d="M306.67,130.23c0-5,3-8,7.34-8s7.31,3,7.31,8-3,8-7.31,8S306.67,135.22,306.67,130.23Zm11.08,0c0-3.39-1.42-5.06-3.74-5.06s-3.77,1.67-3.77,5.06,1.42,5.06,3.77,5.06S317.75,133.62,317.75,130.23Z"/><path d="M330.85,135.17h-8.64v-3l6.54-9.63h5.67v9.63h2.07v3h-2.07v2.75h-3.57Zm0-3v-7.34h-.05l-5,7.34Z"/><path d="M96.18,76.63a.46.46,0,0,1-.29-.1.51.51,0,0,1-.11-.7c1.79-2.45,4-6,2.35-8.82a2.33,2.33,0,0,0-.17-.26,26.45,26.45,0,0,1-6.4,5.59,6.48,6.48,0,0,1-4.43,1.2,2.51,2.51,0,0,1-1.63-1.13,3.47,3.47,0,0,1-.27-2.74,6.51,6.51,0,0,1,.32-.94,33,33,0,0,1-7.07,5.38,3.28,3.28,0,0,1-1.88.52,2.52,2.52,0,0,1-2-2.27,5.43,5.43,0,0,1,.6-2.81A23.94,23.94,0,0,1,94.71,55.76,9.06,9.06,0,0,0,95,49.9,5.66,5.66,0,0,0,91,46,8.82,8.82,0,0,0,85.76,47a42.11,42.11,0,0,0-20,19.06,3.34,3.34,0,0,0-.52,1.77,1.06,1.06,0,0,0,.41.72.52.52,0,0,0,.43.12.5.5,0,0,1,.19,1A1.55,1.55,0,0,1,65,69.4,2.12,2.12,0,0,1,64.21,68a4.16,4.16,0,0,1,.63-2.34A43.17,43.17,0,0,1,85.35,46.12c1.74-.78,3.79-1.54,5.83-1.12A6.67,6.67,0,0,1,96,49.59a9.93,9.93,0,0,1-.21,6.1c.66,0,1.32,0,2,0a3.93,3.93,0,0,1,1.84.47c1.3.81,1.37,2.53,1.3,3.48a12.57,12.57,0,0,1-2.34,6.24,4.78,4.78,0,0,1,.41.59c1.94,3.3-.44,7.24-2.4,9.92A.49.49,0,0,1,96.18,76.63ZM94.27,56.8A22.94,22.94,0,0,0,76.06,70a4.62,4.62,0,0,0-.52,2.29,1.52,1.52,0,0,0,1.17,1.39,2.38,2.38,0,0,0,1.3-.4c4.11-2.23,7.41-5.69,10.59-9C90.64,62,92.93,59.64,94.27,56.8Zm-.83,8a7.54,7.54,0,0,0-1.52.15,7.37,7.37,0,0,0-5.72,5,2.59,2.59,0,0,0,.15,2,1.47,1.47,0,0,0,1,.68,5.58,5.58,0,0,0,3.67-1A25.34,25.34,0,0,0,97.28,66,6,6,0,0,0,93.44,64.75Zm0-1a7,7,0,0,1,4.45,1.44,11.42,11.42,0,0,0,2-5.6c0-.58,0-2-.83-2.55a2.94,2.94,0,0,0-1.37-.32,19.78,19.78,0,0,0-2.31,0c-1.33,3.13-3.74,5.7-5.91,8a9.72,9.72,0,0,1,2.22-.77A8.45,8.45,0,0,1,93.42,63.75Z" fill="#d1d3d4"/></g></svg>