<svg xmlns="http://www.w3.org/2000/svg" viewBox="0 0 400 300"><g id="_165_career_flatline" data-name="#165_career_flatline"><path fill="#fff" d="M279.09,91.6h12.2c3,0,5.52-2,5.52-4.48,0-2.29-2.11-4.17-4.84-4.44a4,4,0,0,0,.11-.91c0-2.6-2.6-4.7-5.8-4.7a7,7,0,0,0-2.5.46s0-.1,0-.16c0-2.59-2.6-4.7-5.8-4.7a6,6,0,0,0-5.31,2.82,12,12,0,0,0-1.91-.16c-5.12,0-9.3,3.23-9.61,7.32-3,0-5.45,2-5.45,4.47s2.47,4.48,5.52,4.48"/><path fill="#d1d3d4" d="M291.29,92.1H279.08a.5.5,0,0,1-.5-.5.51.51,0,0,1,.5-.5h12.21c2.77,0,5-1.78,5-4,0-2-1.89-3.69-4.39-3.94a.51.51,0,0,1-.44-.62,3.64,3.64,0,0,0,.1-.79c0-2.32-2.38-4.2-5.3-4.2A6.32,6.32,0,0,0,284,78a.5.5,0,0,1-.68-.49l.44-.12v0h-.43c0-2.31-2.38-4.2-5.3-4.2a5.46,5.46,0,0,0-4.87,2.56.5.5,0,0,1-.52.25,11.2,11.2,0,0,0-1.83-.15c-4.81,0-8.82,3-9.12,6.86a.51.51,0,0,1-.49.46c-2.73,0-5,1.81-5,4s2.25,4,5,4a.5.5,0,0,1,.5.5.5.5,0,0,1-.5.5c-3.32,0-6-2.23-6-5,0-2.58,2.43-4.73,5.5-5,.59-4.15,4.91-7.34,10.06-7.34a12.94,12.94,0,0,1,1.65.11A6.61,6.61,0,0,1,278,72.17c3.26,0,5.95,2,6.27,4.67a7.57,7.57,0,0,1,2-.27c3.47,0,6.3,2.33,6.3,5.2a4.15,4.15,0,0,1,0,.49c2.75.48,4.76,2.5,4.76,4.86C297.31,89.87,294.61,92.1,291.29,92.1Z"/><path fill="#fff" d="M324.21,184.2c8-1.16,4.76-9.54.4-9.55-.34-4.36-4.8-7.8-10.25-7.8a12.39,12.39,0,0,0-2,.16,6.37,6.37,0,0,0-5.67-3c-3.41,0-6.18,2.25-6.18,5,0,.06,0,.11,0,.17a7.46,7.46,0,0,0-2.67-.5c-3.41,0-6.18,2.25-6.18,5a3.91,3.91,0,0,0,.12,1c-2.92.29-5.17,2.3-5.17,4.74,0,2.64,2.63,4.78,5.89,4.78"/><path fill="#d1d3d4" d="M324.21,184.7a.51.51,0,0,1-.5-.43.5.5,0,0,1,.42-.56c3-.44,4.63-2,4.47-4.26s-2.06-4.3-4-4.3a.51.51,0,0,1-.5-.46c-.32-4.12-4.6-7.34-9.75-7.34a12.74,12.74,0,0,0-2,.15.48.48,0,0,1-.52-.25,5.89,5.89,0,0,0-5.23-2.75c-3.13,0-5.68,2-5.68,4.52v.14a.48.48,0,0,1-.21.43.5.5,0,0,1-.47.07,6.8,6.8,0,0,0-2.49-.47c-3.13,0-5.68,2-5.68,4.52a3.53,3.53,0,0,0,.1.85.46.46,0,0,1-.08.41.47.47,0,0,1-.36.21c-2.68.27-4.71,2.09-4.71,4.24,0,2.36,2.41,4.28,5.39,4.28a.5.5,0,0,1,0,1c-3.53,0-6.39-2.37-6.39-5.28,0-2.52,2.15-4.66,5.08-5.16a5.21,5.21,0,0,1,0-.55c0-3,3-5.52,6.68-5.52a8,8,0,0,1,2.19.31c.32-2.8,3.18-5,6.65-5a7,7,0,0,1,5.93,3,13.2,13.2,0,0,1,1.78-.12c5.49,0,10.09,3.4,10.7,7.82a5.7,5.7,0,0,1,4.54,5.21c.19,2.82-1.79,4.8-5.32,5.31Z"/><polygon fill="#fff" points="182.01 210.43 147.29 190.38 182.01 170.34 216.74 190.38 182.01 210.43"/><path fill="#231f20" d="M182,210.93a.57.57,0,0,1-.25-.06L147,190.82a.5.5,0,0,1,0-.87l34.72-20a.5.5,0,0,1,.5,0L217,190a.5.5,0,0,1,0,.87l-34.73,20.05A.51.51,0,0,1,182,210.93Zm-33.72-20.54L182,209.86l33.73-19.47L182,170.91Z"/><polygon fill="#fff" points="216.74 238 182.01 258.05 182.01 210.43 216.74 190.38 216.74 238"/><path fill="#231f20" d="M182,258.55a.59.59,0,0,1-.25-.07.5.5,0,0,1-.25-.43V210.43a.5.5,0,0,1,.25-.43L216.49,190a.5.5,0,0,1,.5,0,.52.52,0,0,1,.25.44V238a.5.5,0,0,1-.25.43l-34.73,20.05A.52.52,0,0,1,182,258.55Zm.5-47.83v46.46l33.73-19.47V191.25ZM216.74,238h0Z"/><polygon fill="#fff" points="182.01 258.05 147.29 238 147.29 190.38 182.01 210.43 182.01 258.05"/><path fill="#231f20" d="M182,258.55a.59.59,0,0,1-.25-.07L147,238.43a.48.48,0,0,1-.25-.43V190.39a.5.5,0,0,1,.75-.44L182.26,210a.48.48,0,0,1,.25.43v47.62a.48.48,0,0,1-.25.43A.52.52,0,0,1,182,258.55Zm-34.22-20.84,33.72,19.47V210.72l-33.72-19.47Z"/><polygon fill="#fff" points="279.39 224 249.34 206.65 279.39 189.3 309.45 206.65 279.39 224"/><path fill="#231f20" d="M279.39,224.5a.57.57,0,0,1-.25-.06l-30-17.36a.49.49,0,0,1,0-.86l30-17.35a.5.5,0,0,1,.5,0l30.06,17.35a.49.49,0,0,1,0,.86l-30.06,17.36A.51.51,0,0,1,279.39,224.5Zm-29-17.85,29,16.78,29.06-16.78-29.06-16.77Z"/><polygon fill="#fff" points="309.45 234.26 279.39 251.62 279.39 224 309.45 206.65 309.45 234.26"/><path fill="#231f20" d="M279.39,252.12a.59.59,0,0,1-.25-.07.5.5,0,0,1-.25-.43V224a.5.5,0,0,1,.25-.43l30.06-17.35a.5.5,0,0,1,.5,0,.5.5,0,0,1,.25.43v27.62a.52.52,0,0,1-.25.43l-30.06,17.35A.52.52,0,0,1,279.39,252.12Zm.5-27.83v26.46L309,234V207.52Zm29.56,10h0Z"/><polygon fill="#fff" points="279.39 251.62 249.34 234.26 249.34 206.65 279.39 224 279.39 251.62"/><path fill="#231f20" d="M279.39,252.12a.59.59,0,0,1-.25-.07l-30-17.35a.5.5,0,0,1-.25-.43V206.65a.48.48,0,0,1,.25-.43.5.5,0,0,1,.5,0l30,17.35a.48.48,0,0,1,.25.43v27.62a.48.48,0,0,1-.25.43A.52.52,0,0,1,279.39,252.12ZM249.84,234l29,16.77V224.29l-29-16.77Z"/><polygon fill="#fff" points="107.23 163.34 81.92 148.73 107.23 134.11 132.54 148.73 107.23 163.34"/><path fill="#231f20" d="M107.23,163.84a.43.43,0,0,1-.25-.07L81.67,149.16a.48.48,0,0,1-.25-.43.5.5,0,0,1,.25-.44L107,133.68a.5.5,0,0,1,.5,0l25.31,14.61a.52.52,0,0,1,.25.44.5.5,0,0,1-.25.43l-25.31,14.61A.47.47,0,0,1,107.23,163.84ZM82.92,148.73l24.31,14,24.31-14-24.31-14Z"/><polygon fill="#fff" points="132.54 171.78 107.23 186.39 107.23 163.34 132.54 148.73 132.54 171.78"/><path fill="#231f20" d="M107.23,186.89a.43.43,0,0,1-.25-.07.48.48,0,0,1-.25-.43v-23a.48.48,0,0,1,.25-.43l25.31-14.62a.55.55,0,0,1,.5,0,.52.52,0,0,1,.25.44v23.05a.5.5,0,0,1-.25.43l-25.31,14.61A.47.47,0,0,1,107.23,186.89Zm.5-23.26v21.89l24.31-14v-21.9Zm24.81,8.15h0Z"/><polygon fill="#fff" points="107.23 186.39 81.92 171.78 81.92 148.73 107.23 163.34 107.23 186.39"/><path fill="#231f20" d="M107.23,186.89a.43.43,0,0,1-.25-.07L81.67,172.21a.48.48,0,0,1-.25-.43V148.73a.5.5,0,0,1,.25-.44.55.55,0,0,1,.5,0l25.31,14.62a.5.5,0,0,1,.25.43v23a.5.5,0,0,1-.25.43A.47.47,0,0,1,107.23,186.89Zm-24.81-15.4,24.31,14V163.63l-24.31-14Z"/><path fill="#fff" d="M109.8,203.3h20.31c5.08,0,9.2-3.34,9.2-7.46,0-3.81-3.53-6.94-8.07-7.4a6.3,6.3,0,0,0,.18-1.51c0-4.33-4.32-7.83-9.65-7.83a11.48,11.48,0,0,0-4.16.77,2.11,2.11,0,0,0,0-.26c0-4.32-4.32-7.83-9.65-7.83-4,0-7.35,1.93-8.84,4.69a20.71,20.71,0,0,0-3.19-.25c-8.5,0-15.46,5.37-16,12.17-5,.05-9.07,3.37-9.07,7.45s4.12,7.46,9.19,7.46"/><path fill="#d1d3d4" d="M130.11,203.8H109.8a.5.5,0,0,1-.5-.5.5.5,0,0,1,.5-.5h20.31c4.8,0,8.7-3.12,8.7-7,0-3.5-3.28-6.47-7.62-6.9a.47.47,0,0,1-.36-.21.51.51,0,0,1-.08-.4,5.64,5.64,0,0,0,.17-1.4c0-4-4.1-7.33-9.15-7.33a11,11,0,0,0-4,.74.5.5,0,0,1-.47-.06.52.52,0,0,1-.21-.43l0-.24c0-4-4.1-7.33-9.15-7.33-3.65,0-6.94,1.74-8.4,4.43a.5.5,0,0,1-.52.26,18.91,18.91,0,0,0-3.11-.25c-8.17,0-15,5.14-15.49,11.71a.5.5,0,0,1-.5.46c-4.72.05-8.57,3.17-8.57,7s3.9,7,8.69,7a.5.5,0,0,1,.5.5.5.5,0,0,1-.5.5c-5.34,0-9.69-3.57-9.69-8,0-4.2,4-7.69,9.11-7.94.82-6.87,7.94-12.18,16.45-12.18a20.42,20.42,0,0,1,2.93.21,10.56,10.56,0,0,1,9.1-4.65c5.41,0,9.85,3.5,10.13,7.89a11.91,11.91,0,0,1,3.66-.57c5.6,0,10.15,3.74,10.15,8.33a6.56,6.56,0,0,1-.09,1.08c4.59.68,8,4,8,7.83C139.81,200.23,135.46,203.8,130.11,203.8Z"/><polygon fill="#fff" points="112.43 92.08 127.11 83.61 112.44 75.14 97.76 83.61 112.43 92.08"/><path fill="#231f20" d="M112.43,92.58a.59.59,0,0,1-.25-.07L97.51,84a.5.5,0,0,1,0-.87l14.67-8.47a.5.5,0,0,1,.5,0l14.68,8.47a.5.5,0,0,1,0,.87l-14.68,8.47A.52.52,0,0,1,112.43,92.58Zm-13.67-9,13.67,7.89,13.68-7.89-13.68-7.9Z"/><polygon fill="#fff" points="97.76 100.55 112.44 109.02 112.44 92.08 97.76 83.61 97.76 100.55"/><path fill="#231f20" d="M112.43,109.52a.47.47,0,0,1-.25-.07L97.51,101a.5.5,0,0,1-.25-.43V83.61a.52.52,0,0,1,.25-.44.5.5,0,0,1,.5,0l14.67,8.47a.5.5,0,0,1,.25.44V109a.48.48,0,0,1-.25.43A.43.43,0,0,1,112.43,109.52Zm-14.17-9.26,13.67,7.89V92.36L98.26,84.47Z"/><polygon fill="#fff" points="112.44 109.02 127.11 100.55 127.11 83.61 112.44 92.08 112.44 109.02"/><path fill="#231f20" d="M112.43,109.52a.47.47,0,0,1-.25-.07.5.5,0,0,1-.25-.43V92.08a.52.52,0,0,1,.25-.44l14.68-8.47a.5.5,0,0,1,.5,0,.52.52,0,0,1,.25.44v16.94a.5.5,0,0,1-.25.43l-14.68,8.47A.43.43,0,0,1,112.43,109.52Zm.5-17.16v15.79l13.68-7.89V84.47Z"/><path fill="#687093" d="M81.92,56.26c15.17,10.3,22.46-7.3,30.33,4V44.1C98.19,36.81,99.86,53,81.92,56.26Z"/><line x1="112.25" x2="112.25" y1="83.61" y2="41.95" fill="#fff"/><path fill="#231f20" d="M112.25,84.12a.51.51,0,0,1-.51-.51V42a.52.52,0,0,1,1,0V83.61A.51.51,0,0,1,112.25,84.12Z"/><polygon fill="#fff" points="176.32 66.19 164.94 59.62 176.32 53.05 187.7 59.62 176.32 66.19"/><path fill="#d1d3d4" d="M176.32,66.69a.47.47,0,0,1-.25-.07l-11.38-6.57a.5.5,0,0,1,0-.87l11.38-6.57a.5.5,0,0,1,.5,0L188,59.18a.5.5,0,0,1,0,.87l-11.38,6.57A.45.45,0,0,1,176.32,66.69Zm-10.38-7.07,10.38,6,10.38-6-10.38-6Z"/><polygon fill="#fff" points="187.7 70.83 176.32 77.4 176.32 66.19 187.7 59.62 187.7 70.83"/><path fill="#d1d3d4" d="M176.32,77.9a.47.47,0,0,1-.25-.07.5.5,0,0,1-.25-.43V66.19a.52.52,0,0,1,.25-.44l11.38-6.57a.5.5,0,0,1,.75.44V70.83a.48.48,0,0,1-.25.43l-11.38,6.57A.45.45,0,0,1,176.32,77.9Zm.5-11.42v10l10.38-6V60.48Zm10.88,4.35h0Z"/><polygon fill="#fff" points="176.32 77.4 164.94 70.83 164.94 59.62 176.32 66.19 176.32 77.4"/><path fill="#d1d3d4" d="M176.32,77.9a.47.47,0,0,1-.25-.07l-11.38-6.57a.5.5,0,0,1-.25-.43V59.62a.52.52,0,0,1,.25-.44.5.5,0,0,1,.5,0l11.38,6.57a.5.5,0,0,1,.25.44V77.4a.48.48,0,0,1-.25.43A.45.45,0,0,1,176.32,77.9Zm-10.88-7.36,10.38,6v-10l-10.38-6Z"/><path fill="#231f20" d="M207.46,74.65h-.1a2.93,2.93,0,0,1-2.06-.93,3,3,0,0,1-.8-2.12,2.92,2.92,0,0,1,.94-2.06,3,3,0,0,1,2.12-.8,2.94,2.94,0,0,1,2.06.94,3,3,0,0,1-2.16,5Zm0-4.92a2,2,0,0,0-1.34.53,2,2,0,0,0-.62,1.36h0A2,2,0,0,0,206,73a1.88,1.88,0,0,0,1.36.62,2,2,0,1,0,.14-3.91ZM205,71.6h0Z"/><path fill="#fff" d="M224.74,82.94c1.11,0,2.22-.17,3.51-.23s2.74-.45,2.81-1.65c.05-1-1.15-1.91-.84-2.89a2.24,2.24,0,0,1,.44-.7,11,11,0,0,0-1.38-15.25c.33.13.7-.19.75-.54a1.43,1.43,0,0,0-.35-1,6.91,6.91,0,0,0-3.25-2.13,21,21,0,0,0-12.4-.42c-3.13.8-6.93,3.14-6.65,6.89a3,3,0,0,0,2.46,2.81c.55,4,2.56,6.83,5.1,9.83a16.17,16.17,0,0,0,6.35,4.65A8.93,8.93,0,0,0,224.74,82.94Z"/><path fill="#231f20" d="M224.64,83.44a9.26,9.26,0,0,1-3.53-.65A16.49,16.49,0,0,1,214.56,78c-2.25-2.64-4.49-5.57-5.16-9.71a3.58,3.58,0,0,1-2.52-3.21c-.28-3.81,3.33-6.47,7-7.42a21.63,21.63,0,0,1,12.69.44,7.43,7.43,0,0,1,3.48,2.3,1.83,1.83,0,0,1,.44,1.34,1.14,1.14,0,0,1-.32.66,11.53,11.53,0,0,1,.85,15.38,2,2,0,0,0-.36.54c-.1.33.11.71.35,1.15a3.06,3.06,0,0,1,.52,1.62c-.07,1.22-1.3,2-3.29,2.12l-1.52.11c-.69.06-1.34.11-2,.12h-.11Zm.1-.5h0Zm-5-25a22.67,22.67,0,0,0-5.56.71c-2.47.63-6.56,2.68-6.28,6.38a2.49,2.49,0,0,0,2,2.34.52.52,0,0,1,.46.43c.5,3.69,2.21,6.31,5,9.57a15.58,15.58,0,0,0,6.16,4.51,8.29,8.29,0,0,0,3.16.58h.1c.62,0,1.26-.06,1.93-.12l1.55-.11c.38,0,2.28-.17,2.34-1.18a2.26,2.26,0,0,0-.39-1.08,2.39,2.39,0,0,1-.43-1.92,2.5,2.5,0,0,1,.49-.83A10.55,10.55,0,0,0,229,62.6a.49.49,0,0,1,.5-.84s.06-.08.07-.15a.92.92,0,0,0-.25-.61,6.34,6.34,0,0,0-3-2A19,19,0,0,0,219.72,57.92Z"/><path fill="#fff" d="M208.57,73.64s-3,4.61-2.39,5.56,2.72.31,2.72.31"/><path fill="#231f20" d="M207.52,80.22a2,2,0,0,1-1.75-.75c-.71-1.06,1.19-4.28,2.38-6.11a.5.5,0,0,1,.84.55c-1.45,2.21-2.56,4.56-2.38,5s1.6.26,2.15.1a.5.5,0,0,1,.62.33.51.51,0,0,1-.33.63A5.72,5.72,0,0,1,207.52,80.22Z"/><path fill="#fff" d="M209.19,67.56c-1.93,1.59-1.35,4.92-1.32,7.09q0,4.59.32,9.16c.11,1.93,5.12,2,6,1.37l-.75,7.65L224,88.74l-.46-6.32a6.38,6.38,0,0,1-5.38-3.89c-2-3.94-1.73-12.51-1.73-12.51S211.07,66,209.19,67.56Z"/><path fill="#231f20" d="M213.44,93.33a.51.51,0,0,1-.3-.1.51.51,0,0,1-.2-.45l.68-6.9a8.8,8.8,0,0,1-4.74-.48,1.86,1.86,0,0,1-1.19-1.57c-.18-3-.29-6.12-.32-9.17,0-.36,0-.76-.05-1.17-.11-2.16-.24-4.84,1.56-6.32h0c2-1.65,7.3-1.66,7.5-1.65a.52.52,0,0,1,.36.16.51.51,0,0,1,.14.36c0,.08-.22,8.49,1.68,12.26,1.8,3.6,4.84,3.65,4.93,3.62h0a.51.51,0,0,1,.5.47l.46,6.32a.5.5,0,0,1-.32.5l-10.51,4.08A.39.39,0,0,1,213.44,93.33Zm.75-8.65a.48.48,0,0,1,.26.07.5.5,0,0,1,.24.48L214,92.07l9.4-3.66L223,82.89a7,7,0,0,1-5.37-4.14c-1.74-3.48-1.81-10.27-1.79-12.22-1.71,0-5.08.36-6.36,1.42h0c-1.41,1.16-1.29,3.57-1.19,5.5,0,.43,0,.83.05,1.21,0,3,.14,6.1.31,9.13,0,.27.24.51.65.72a7.3,7.3,0,0,0,4.59.26A.53.53,0,0,1,214.19,84.68Z"/><path fill="#fff" d="M208.25,81.53a2.48,2.48,0,0,0,3.62-1"/><path fill="#231f20" d="M209.78,82.45A3.89,3.89,0,0,1,208,82a.5.5,0,0,1-.17-.69.51.51,0,0,1,.69-.17,2.52,2.52,0,0,0,1.75.29,2,2,0,0,0,1.17-1.09.49.49,0,0,1,.67-.22.5.5,0,0,1,.22.67,2.92,2.92,0,0,1-1.8,1.6A2.74,2.74,0,0,1,209.78,82.45Z"/><path fill="#231f20" d="M221.09,75.93a.5.5,0,0,1-.49-.38,6.84,6.84,0,0,0-.34-1c-1.66-.25-13.87-2.19-15.33-2.42a.51.51,0,0,1-.42-.58.5.5,0,0,1,.57-.41l15.47,2.44c.22,0,.6.06,1,1.76a.5.5,0,0,1-.36.61Zm-.65-1.39h0Zm0,0h0Z"/><path fill="#fff" d="M214.43,75.57a4.19,4.19,0,0,1,.85-2.1,6,6,0,0,1,1.1-1.39,2,2,0,0,1,1.64-.51,1.87,1.87,0,0,1,1.2.94,3.46,3.46,0,0,1,.39,1.52,6.54,6.54,0,0,1-3,5.82l.17-.18"/><path fill="#231f20" d="M216.61,80.35a.49.49,0,0,1-.38-.18.5.5,0,0,1,0-.66l.16-.18a.58.58,0,0,1,.31-.16,6.09,6.09,0,0,0,2.39-5.11,3.06,3.06,0,0,0-.32-1.3,1.37,1.37,0,0,0-.87-.7,1.5,1.5,0,0,0-1.22.4,5.79,5.79,0,0,0-1,1.28,3.72,3.72,0,0,0-.77,1.84.49.49,0,0,1-.5.49h0a.5.5,0,0,1-.5-.51,4.57,4.57,0,0,1,.93-2.36,6.19,6.19,0,0,1,1.2-1.5,2.47,2.47,0,0,1,2.06-.62,2.33,2.33,0,0,1,1.54,1.19,4,4,0,0,1,.45,1.73,7.08,7.08,0,0,1-3.23,6.27A.43.43,0,0,1,216.61,80.35Z"/><ellipse cx="209.46" cy="71.26" fill="#231f20" rx="1.09" ry=".43" transform="translate(127.81 276.89) rotate(-87.13)"/><path fill="#fff" d="M226.08,90.62l-.91-3.37-13.46.84-1.44,5A26.51,26.51,0,0,0,226.08,90.62Z"/><path fill="#231f20" d="M214.07,93.92a21.08,21.08,0,0,1-3.91-.33.51.51,0,0,1-.32-.24.49.49,0,0,1-.05-.39l1.44-5a.5.5,0,0,1,.45-.36l13.46-.84a.5.5,0,0,1,.52.37l.91,3.37a.51.51,0,0,1-.27.58A28,28,0,0,1,214.07,93.92ZM210.9,92.7a26.79,26.79,0,0,0,14.59-2.35l-.69-2.57-12.71.79Z"/><path fill="#fff" d="M177.23,110.55s-4.15-5.32-4.49-6.42-.37-3.35-1.24-4.91-3.09-2.9-4.05-.7c0,0-.64-3.58-3-1.53a6.51,6.51,0,0,0-2.1,7.14c.7,2.72,11.1,16.33,11.1,16.33"/><path fill="#231f20" d="M173.46,121a.5.5,0,0,1-.4-.19c-.43-.56-10.46-13.73-11.18-16.51a7,7,0,0,1,2.25-7.65,2.2,2.2,0,0,1,2.18-.67,2.44,2.44,0,0,1,1.31,1.44,1.92,1.92,0,0,1,1.22-.52,3.79,3.79,0,0,1,3.1,2.11,11.37,11.37,0,0,1,1,3.65,12.34,12.34,0,0,0,.26,1.36,52.15,52.15,0,0,0,4.4,6.26.5.5,0,1,1-.79.62c-.7-.9-4.22-5.45-4.56-6.59a13.39,13.39,0,0,1-.3-1.49,10.43,10.43,0,0,0-.9-3.32,2.84,2.84,0,0,0-2.18-1.6c-.42,0-.74.3-1,.86a.5.5,0,0,1-.95-.11c-.07-.39-.4-1.52-1-1.72-.37-.14-.85.18-1.18.47a6,6,0,0,0-1.94,6.65c.55,2.15,8.13,12.39,11,16.15a.51.51,0,0,1-.1.7A.49.49,0,0,1,173.46,121Z"/><path fill="#fff" d="M266.93,123.53s1.21,2.62,1.86,4.58a26.67,26.67,0,0,1,.78,5.63c.5-.57,1.28-.7,1.81-1.2a7.16,7.16,0,0,0,.53,2.38,2.47,2.47,0,0,0,1.83,1.46,3.31,3.31,0,0,0,1.28-.18c1.5-.46,4-1.3,4.33-3.09a3.56,3.56,0,0,0-.36-2c-1.08-2.67-6-9.66-6.85-10.79"/><path fill="#231f20" d="M274,136.9l-.27,0a3,3,0,0,1-2.22-1.75,5.6,5.6,0,0,1-.48-1.72l-.22.11a2.69,2.69,0,0,0-.81.55.5.5,0,0,1-.54.14.5.5,0,0,1-.34-.45,26.8,26.8,0,0,0-.75-5.49c-.64-1.91-1.83-4.5-1.84-4.53a.49.49,0,0,1,.24-.66.5.5,0,0,1,.67.24c.05.11,1.23,2.67,1.87,4.63a22.15,22.15,0,0,1,.76,4.83l.29-.15a3.16,3.16,0,0,0,.72-.45.52.52,0,0,1,.52-.11.5.5,0,0,1,.32.42,7,7,0,0,0,.49,2.21,2,2,0,0,0,1.43,1.19,2.75,2.75,0,0,0,1.08-.17c1.71-.52,3.71-1.3,4-2.71a3.18,3.18,0,0,0-.33-1.75c-1-2.4-5.34-8.68-6.79-10.68a.5.5,0,0,1,.81-.59c.06.08,5.7,7.93,6.91,10.9a4.07,4.07,0,0,1,.38,2.31c-.42,2.18-3.4,3.09-4.68,3.48A4.39,4.39,0,0,1,274,136.9Z"/><path fill="#fff" d="M201.32,187.48s1.67,7.57-1.41,8.92S179.63,186,180.54,183.09s6.37-4.35,11.63-.87A75.2,75.2,0,0,0,201.32,187.48Z"/><path fill="#231f20" d="M199.3,197c-3.49,0-12.08-5.71-16-9.17s-3.41-4.53-3.29-4.91a4.56,4.56,0,0,1,3-2.83c2.79-1,6.3-.37,9.39,1.68a75.57,75.57,0,0,0,9.08,5.22.5.5,0,0,1,.29.36c.18.82,1.67,8-1.7,9.51A2.23,2.23,0,0,1,199.3,197Zm-13.47-16.33a7.22,7.22,0,0,0-2.42.39,3.63,3.63,0,0,0-2.38,2.16c-.11.34.4,1.54,3,3.84,5.31,4.73,14,9.61,15.68,8.85,2.12-.93,1.6-5.94,1.17-8.09a80.72,80.72,0,0,1-9-5.19A11.08,11.08,0,0,0,185.83,180.69Z"/><path fill="#231f20" d="M231.45,150.43s-19,6.64-33.64,5.07l3.69,31.94s-5.33,2.39-11.87-4.88c0,0-8.7-38.93-5.1-41.1s38-2.47,38-2.47Z"/><path fill="#231f20" d="M199.21,188.32c-2.28,0-5.89-.92-10-5.42a.51.51,0,0,1-.12-.23c-1.46-6.56-8.58-39.39-4.87-41.63s36.81-2.54,38.22-2.55a.44.44,0,0,1,.4.19l9,11.45a.49.49,0,0,1-.22.77c-.19.07-18.72,6.47-33.24,5.15L202,187.38a.52.52,0,0,1-.29.51A6.6,6.6,0,0,1,199.21,188.32Zm-9.12-6c5.31,5.83,9.65,5.13,10.87,4.77l-3.64-31.54a.47.47,0,0,1,.14-.41.48.48,0,0,1,.41-.15c12.85,1.38,29.28-3.68,32.76-4.82l-8.37-10.69c-9.71.09-34.65.7-37.48,2.4C182.52,143.25,186.52,166.31,190.09,182.33Z"/><path fill="#231f20" d="M241.74,144.05s-.78,30,.25,30.41S272.09,196,272.09,196l1.07,9.78s-40.65-17.45-42.8-22.86-10.3-37.24-10.3-37.24Z"/><path fill="#231f20" d="M273.16,206.25a.45.45,0,0,1-.2,0c-1.67-.71-40.86-17.59-43.06-23.13-2.14-5.38-10-36-10.32-37.29a.49.49,0,0,1,.45-.62l21.68-1.62a.5.5,0,0,1,.53.51c-.28,10.79-.5,28.29.1,30,2.4,1.44,27.15,19.39,30,21.49a.47.47,0,0,1,.2.35l1.07,9.78a.51.51,0,0,1-.2.46A.5.5,0,0,1,273.16,206.25Zm-52.47-60.14c1.12,4.34,8.17,31.68,10.13,36.6,1.67,4.19,30,17.16,41.75,22.25l-.95-8.71c-11.55-8.38-28.9-20.89-29.83-21.33-.35-.15-1.32-.55-.56-30.33Zm21.67,28h0Zm-.18-.15,0,0Z"/><path fill="#687093" d="M199.48,100.27s1.13-6.59,20.27-10.09a28.31,28.31,0,0,1,13.87.77c.72,3,6.85,45.8,9.6,55.86,0,0-23.08,8.46-34.66-5.55C208.56,141.26,201.21,103.39,199.48,100.27Z"/><rect width="41.97" height="27.22" x="262.49" y="135.82" fill="#fff" rx="3.56" transform="translate(603.19 171.15) rotate(156.09)"/><path fill="#231f20" d="M271.62,169.74a4.06,4.06,0,0,1-3.71-2.41L259.76,149a4,4,0,0,1,2.07-5.35l31.86-14.13a4.07,4.07,0,0,1,5.36,2.06l8.14,18.38a4,4,0,0,1,.08,3.11,4,4,0,0,1-2.14,2.24l-31.87,14.13A4,4,0,0,1,271.62,169.74Zm23.71-39.62a3,3,0,0,0-1.23.26l-31.87,14.13a3,3,0,0,0-1.61,1.69,3,3,0,0,0,.06,2.34l8.14,18.38a3.08,3.08,0,0,0,4,1.56h0l31.86-14.13a3,3,0,0,0,1.56-4l-8.15-18.38A3.05,3.05,0,0,0,295.33,130.12Z"/><path fill="#d1d3d4" d="M265.77,150.93a.5.5,0,0,1-.21-1l30.35-13.45a.5.5,0,0,1,.4.92L266,150.89A.48.48,0,0,1,265.77,150.93Z"/><path fill="#231f20" d="M270.87,140.63a.57.57,0,0,1-.18,0,.48.48,0,0,1-.27-.27l-1.21-2.71a3.19,3.19,0,0,1,1.63-4.21l9.26-4.1a3.18,3.18,0,0,1,4.2,1.62l1.21,2.71a.49.49,0,0,1-.26.66l-14.17,6.29A.52.52,0,0,1,270.87,140.63ZM281.39,130a2.33,2.33,0,0,0-.89.19l-9.26,4.11a2.2,2.2,0,0,0-1.15,1.21,2.15,2.15,0,0,0,0,1.67l1,2.26,13.26-5.88-1-2.26a2.2,2.2,0,0,0-1.21-1.15A2.17,2.17,0,0,0,281.39,130Z"/><path fill="#687093" d="M228.74,89.79s19.33,4.36,24,7.27S276,119.85,276,119.85l-12.25,6.92s-11.54-13.91-14.94-15.91-18.54-.37-18.54-.37Z"/><path fill="#687093" d="M199.48,100.27s-11,20.08-12.85,19-9.73-13-9.73-13l-8.77,9.91s7.18,22.48,17.75,19.94,26.69-21.24,26.69-21.24Z"/><path fill="#231f20" d="M197.21,130.15a.52.52,0,0,1-.43-.24.51.51,0,0,1,.16-.69c8.77-5.49,15.16-14.61,15.22-14.7a.5.5,0,0,1,.82.57c-.06.09-6.56,9.37-15.51,15A.5.5,0,0,1,197.21,130.15Z"/><path fill="#231f20" d="M241.26,138.09a.5.5,0,0,1-.49-.4c-1.17-5.92-5.6-35.55-5.64-35.85a.49.49,0,0,1,.42-.56.5.5,0,0,1,.57.42c0,.3,4.46,29.89,5.63,35.79a.49.49,0,0,1-.39.59Z"/><path fill="#fff" d="M266.93,201.65c-2.18-7.11.17-10.41,2.73-10.55s4.19-.54,6.21,6.43,2.2,18-1.79,18.6S269.11,208.77,266.93,201.65Z"/><path fill="#231f20" d="M273.65,216.68c-3.23,0-4.49-4.8-5.94-10.32-.4-1.5-.81-3.05-1.27-4.56-1.25-4.09-1.17-7.46.25-9.49a3.85,3.85,0,0,1,2.94-1.73h.3c2.8-.17,4.48.06,6.43,6.81,1.71,5.89,2.09,14.42-.06,17.75a3.1,3.1,0,0,1-2.15,1.52Zm-2.79-25.12c-.27,0-.56,0-.86,0h-.31a2.83,2.83,0,0,0-2.15,1.29c-.72,1-1.68,3.5-.11,8.6h0c.47,1.53.88,3.09,1.27,4.6,1.4,5.32,2.61,9.92,5.3,9.52a2,2,0,0,0,1.43-1.05c2-3,1.55-11.35-.06-16.9S272.59,191.56,270.86,191.56Z"/></g></svg>