<svg xmlns="http://www.w3.org/2000/svg" viewBox="0 0 400 300"><g id="_288_startup_flatline" data-name="#288_startup_flatline"><ellipse cx="210.85" cy="251.03" fill="#d1d3d4" rx="57.4" ry="5.49"/><polygon fill="#fff" points="192.98 233.34 228.72 233.34 233 216.17 188.69 216.17 192.98 233.34"/><path fill="#231f20" d="M228.72,233.84H193a.51.51,0,0,1-.49-.38l-4.28-17.17a.48.48,0,0,1,.09-.43.49.49,0,0,1,.39-.19H233a.51.51,0,0,1,.4.19.51.51,0,0,1,.09.43l-4.29,17.17A.49.49,0,0,1,228.72,233.84Zm-35.35-1h35l4-16.17h-43Z"/><path fill="#fff" d="M250.91,162.58s18.72,11.71,25.23,31.22S267.81,251,267.81,251l-34.07-36.94Z"/><path fill="#231f20" d="M267.81,251.53a.48.48,0,0,1-.36-.17l-34.08-36.93a.54.54,0,0,1-.11-.5l17.17-51.5a.52.52,0,0,1,.31-.32.5.5,0,0,1,.43,0c.19.12,19,12,25.44,31.48,2.73,8.18,2.15,20.36-1.71,36.21a187,187,0,0,1-6.62,21.36.49.49,0,0,1-.37.31ZM234.31,214l33.32,36.12c2-5.4,13.9-38.53,8-56.13-5.75-17.27-21.39-28.51-24.49-30.6Z"/><path fill="#fff" d="M169.92,162.58s-18.73,11.71-25.23,31.22S153,251,153,251l34.08-36.94Z"/><path fill="#231f20" d="M153,251.53h-.09a.49.49,0,0,1-.37-.31,187,187,0,0,1-6.62-21.36c-3.87-15.85-4.44-28-1.71-36.21,6.48-19.45,25.25-31.36,25.44-31.48a.5.5,0,0,1,.43,0,.52.52,0,0,1,.31.32l17.16,51.5a.51.51,0,0,1-.1.5l-34.08,36.93A.48.48,0,0,1,153,251.53Zm16.64-88.17c-3.09,2.09-18.73,13.33-24.49,30.6-5.87,17.6,6,50.73,8,56.13L186.52,214Z"/><path fill="#fff" d="M180.24,222.67c-9.32-22.28-15.17-54.58-15.17-90.52,0-54.46,30-82.82,41.45-91.63a7.07,7.07,0,0,1,8.65,0c11.42,8.81,41.46,37.17,41.46,91.63,0,35.94-5.86,68.24-15.17,90.52,0,0-9.28,4.68-30.61,4.68S180.24,222.67,180.24,222.67Z"/><path fill="#231f20" d="M210.85,227.85c-21.21,0-30.45-4.54-30.84-4.73a.47.47,0,0,1-.23-.25c-9.67-23.13-15.21-56.2-15.21-90.72,0-54.05,29.12-82.36,41.64-92a7.61,7.61,0,0,1,9.27,0c12.52,9.67,41.65,38,41.65,92,0,34.52-5.55,67.59-15.21,90.72a.49.49,0,0,1-.24.25C241.3,223.31,232.05,227.85,210.85,227.85Zm-30.22-5.55c1.32.6,10.78,4.55,30.22,4.55s28.9-3.95,30.22-4.55c9.57-23,15.06-55.84,15.06-90.15,0-53.6-28.86-81.66-41.26-91.23a6.57,6.57,0,0,0-8,0c-12.41,9.57-41.26,37.62-41.26,91.23C165.57,166.46,171.05,199.3,180.63,222.3Z"/><path fill="#fff" d="M215.17,40.52A106.12,106.12,0,0,1,247,82.73H174.68a106.12,106.12,0,0,1,31.84-42.21A7.07,7.07,0,0,1,215.17,40.52Z"/><path fill="#231f20" d="M247,83.23H174.68a.5.5,0,0,1-.42-.23.49.49,0,0,1,0-.47c9.74-22.93,24.23-36.41,32-42.41a7.61,7.61,0,0,1,9.27,0h0c7.77,6,22.26,19.48,32,42.41a.49.49,0,0,1,0,.47A.5.5,0,0,1,247,83.23Zm-71.58-1h70.82c-9.65-22.3-23.78-35.44-31.39-41.31h0a6.57,6.57,0,0,0-8,0C199.21,46.79,185.08,59.93,175.44,82.23Z"/><path fill="#fff" d="M197.87,143.72h22.38a0,0,0,0,1,0,0v19a3.4,3.4,0,0,1-3.4,3.4H201.27a3.4,3.4,0,0,1-3.4-3.4v-19A0,0,0,0,1,197.87,143.72Z"/><path fill="#231f20" d="M216.84,166.6H201.27a3.91,3.91,0,0,1-3.9-3.91v-19a.5.5,0,0,1,.5-.5h22.38a.5.5,0,0,1,.5.5v19A3.91,3.91,0,0,1,216.84,166.6Zm-18.47-22.38v18.47a2.91,2.91,0,0,0,2.9,2.91h15.57a2.92,2.92,0,0,0,2.91-2.91V144.22Z"/><circle cx="209.06" cy="123.22" r="27.92" fill="#fff"/><path fill="#231f20" d="M209.06,151.64a28.43,28.43,0,1,1,28.42-28.43A28.46,28.46,0,0,1,209.06,151.64Zm0-55.85a27.43,27.43,0,1,0,27.42,27.42A27.46,27.46,0,0,0,209.06,95.79Z"/><circle cx="209.06" cy="123.22" r="17.23" fill="#231f20"/><path fill="#231f20" d="M209.06,140.94a17.73,17.73,0,1,1,17.72-17.73A17.75,17.75,0,0,1,209.06,140.94Zm0-34.45a16.73,16.73,0,1,0,16.72,16.72A16.74,16.74,0,0,0,209.06,106.49Z"/><path fill="#fff" d="M195.39,122.12h-.07a.49.49,0,0,1-.42-.56C196.83,108.3,209,109,209.09,109a.5.5,0,0,1-.07,1c-.46,0-11.34-.6-13.14,11.73A.5.5,0,0,1,195.39,122.12Z"/><path fill="#fff" d="M215.13,111.62a.51.51,0,0,1-.31-.11,6.11,6.11,0,0,0-2.59-1.07.5.5,0,0,1-.43-.56.51.51,0,0,1,.56-.43,7.1,7.1,0,0,1,3.07,1.27.5.5,0,0,1,.09.7A.5.5,0,0,1,215.13,111.62Z"/><path fill="#fff" d="M183.62,214.92a.49.49,0,0,1-.47-.34,398.4,398.4,0,0,1-11.73-46.89.5.5,0,0,1,.4-.58.49.49,0,0,1,.58.4,398.39,398.39,0,0,0,11.69,46.75.5.5,0,0,1-.31.63Z"/><path fill="#fff" d="M197.87,160c0-.46,22.38,0,22.38,0"/><path fill="#231f20" d="M220.25,160.54h0c-7.94-.16-20.8-.33-22.11-.07a.5.5,0,0,1-.6-.8c.19-.19.59-.58,22.73-.13a.5.5,0,0,1,0,1Z"/><path fill="#fff" d="M197.87,155c0-.46,22.38,0,22.38,0"/><path fill="#231f20" d="M220.25,155.51h0c-7.94-.16-20.8-.32-22.11-.07a.5.5,0,0,1-.6-.8c.19-.19.59-.58,22.73-.13a.52.52,0,0,1,.49.51A.51.51,0,0,1,220.25,155.51Z"/><path fill="#231f20" d="M200,165.85h17.73a0,0,0,0,1,0,0v0a3.77,3.77,0,0,1-3.77,3.77H203.77a3.77,3.77,0,0,1-3.77-3.77v0A0,0,0,0,1,200,165.85Z"/><path fill="#231f20" d="M214,170.12H203.77a4.27,4.27,0,0,1-4.27-4.27.5.5,0,0,1,.5-.5h17.73a.5.5,0,0,1,.5.5A4.27,4.27,0,0,1,214,170.12Zm-13.42-3.77a3.27,3.27,0,0,0,3.23,2.77H214a3.27,3.27,0,0,0,3.23-2.77Z"/><path fill="#fff" d="M181.51,204.79s13.12,1.81,17.79,1.21l.76,10.4s-14.32-.19-17.94-2Z"/><path fill="#d1d3d4" d="M200.06,216.91h0c-.59,0-14.48-.21-18.16-2a.5.5,0,0,1-.29-.43l-.6-9.63a.53.53,0,0,1,.16-.41.51.51,0,0,1,.42-.13c.14,0,13.1,1.79,17.66,1.2a.51.51,0,0,1,.39.12.52.52,0,0,1,.19.36l.75,10.4a.51.51,0,0,1-.14.39A.52.52,0,0,1,200.06,216.91Zm-17.45-2.83c3.42,1.42,14.29,1.73,16.89,1.79l-.67-9.31c-4.46.38-14.18-.83-16.76-1.18Z"/><path fill="#fff" d="M82.82,217.43A10.82,10.82,0,0,0,88,222.08c1.86.78,4,.57,5.93,1,5.53,1.11,11.13.33,16.5-1.23s11.21-4.22,14-9.26a13.25,13.25,0,0,0-.27-12.94c-.87-1.44-2-2.69-2.93-4.09a29.38,29.38,0,0,1-3.17-7.31c-1.44-4.54-2.55-9.59-5-13.72a7.17,7.17,0,0,0-4.59-3.06c-.54-.14-5.85.08-5.6.41-1.1-1.46-3.39-1-5-.19a20,20,0,0,0-10,11.5c-1.45,4.36-1.34,9.09-2.4,13.56-.83,3.49-2.35,6.77-3.25,10.24S81.11,214.28,82.82,217.43Z"/><path fill="#231f20" d="M99.34,224.07a28,28,0,0,1-5.48-.53,17.79,17.79,0,0,0-2.21-.27,12,12,0,0,1-3.81-.73,11.26,11.26,0,0,1-5.46-4.87c-1.55-2.85-1.76-6.5-.64-10.84.44-1.66,1-3.29,1.57-4.88A51.11,51.11,0,0,0,85,196.6a51.68,51.68,0,0,0,.93-5.79A39.84,39.84,0,0,1,87.4,183a20.49,20.49,0,0,1,10.21-11.79c1.69-.84,4-1.3,5.38,0a28.63,28.63,0,0,1,5.6-.29,7.6,7.6,0,0,1,4.89,3.3,46.25,46.25,0,0,1,4.08,10.61c.32,1.08.63,2.16,1,3.21a29,29,0,0,0,3.11,7.19c.4.6.86,1.2,1.29,1.77a26.31,26.31,0,0,1,1.65,2.33,13.72,13.72,0,0,1,.28,13.44c-2.35,4.29-7,7.4-14.26,9.5A40.53,40.53,0,0,1,99.34,224.07Zm1.35-52.68a6.23,6.23,0,0,0-2.63.71,19.49,19.49,0,0,0-9.71,11.22,39.31,39.31,0,0,0-1.44,7.61,54.41,54.41,0,0,1-.94,5.9,54.15,54.15,0,0,1-1.71,5.46c-.56,1.56-1.13,3.17-1.55,4.79-.73,2.81-1.22,6.84.55,10.12h0a10.25,10.25,0,0,0,5,4.42,11.39,11.39,0,0,0,3.51.66,18.58,18.58,0,0,1,2.32.28c4.79,1,10.11.56,16.26-1.22,7-2,11.45-5,13.67-9a12.68,12.68,0,0,0-.27-12.44,25.08,25.08,0,0,0-1.58-2.24c-.45-.59-.91-1.2-1.33-1.83a30.09,30.09,0,0,1-3.24-7.44c-.33-1.06-.65-2.14-1-3.23a45.35,45.35,0,0,0-4-10.38,6.63,6.63,0,0,0-4.28-2.84,30.73,30.73,0,0,0-5.11.26.13.13,0,0,1-.07.06.5.5,0,0,1-.7-.09A2.09,2.09,0,0,0,100.69,171.39Z"/><path fill="#fff" d="M126.28,251.82c1,0,8.35.8,11.79,2.51s4.19,1.84,3.49,4.15-6.76,2.88-11.38,2a31,31,0,0,1-8.51-3.09Z"/><path fill="#231f20" d="M134.43,261.32a24.49,24.49,0,0,1-4.33-.38,31.45,31.45,0,0,1-8.66-3.15.46.46,0,0,1-.12-.69l4.61-5.57a.42.42,0,0,1,.34-.17c1.07,0,8.48.81,12,2.56l.78.38c2.77,1.36,3.7,1.82,2.95,4.32C141.42,260.56,137.94,261.32,134.43,261.32Zm-12.05-4.06a30.85,30.85,0,0,0,7.89,2.78c4.94.93,10.32.1,10.86-1.69s.3-1.86-2.48-3.23l-.78-.38c-3.16-1.57-9.84-2.4-11.38-2.46Z"/><path fill="#fff" d="M127.27,251.8a2.65,2.65,0,0,1,2,3c-.33,2.45-5.51,2.55-5.81,2.56S127.27,251.8,127.27,251.8Z"/><path fill="#231f20" d="M123.45,257.82a.48.48,0,0,1-.42-.26c-.16-.3-.24-.47,3.87-6a.46.46,0,0,1,.47-.18,3.08,3.08,0,0,1,2.34,3.51c-.36,2.7-5.27,2.94-6.25,3Zm4-5.49c-1.28,1.74-2.6,3.59-3.22,4.54,1.89-.15,4.4-.71,4.58-2.13A2.13,2.13,0,0,0,127.44,252.33Z"/><path fill="#fff" d="M88.84,257.41c-.16.08-1.56,1.91-7.71,2.65s-8.43,2.05-9.8-1.18-.43-5.31,2.6-6.23,11.38-1.69,13-.15S88.84,257.41,88.84,257.41Z"/><path fill="#231f20" d="M74.36,261.41a3.32,3.32,0,0,1-3.45-2.35,5.45,5.45,0,0,1-.3-4.45,4.82,4.82,0,0,1,3.19-2.4c3-.9,11.61-1.78,13.46,0s2,5.06,2,5.21a.46.46,0,0,1-.19.41c-1.88,1.7-5.33,2.41-7.92,2.72-1.32.16-2.45.34-3.45.5A22.24,22.24,0,0,1,74.36,261.41Zm8-9.34a34.26,34.26,0,0,0-8.31,1A4,4,0,0,0,71.44,255a4.57,4.57,0,0,0,.31,3.71c.9,2.1,2,2,5.83,1.4,1-.16,2.16-.35,3.5-.51,2.41-.29,5.61-.93,7.28-2.38-.09-.75-.47-3.2-1.73-4.38C86.05,252.29,84.37,252.07,82.37,252.07Z"/><path fill="#fff" d="M90.8,256.09s-2.79,2.33-4.65,2.06-4.43-1.29-3.39-3.3,7.69-3.21,7.69-3.21Z"/><path fill="#231f20" d="M86.46,258.62a2.42,2.42,0,0,1-.38,0c-.7-.11-3.07-.56-3.81-2a2.06,2.06,0,0,1,.08-2c1.11-2.15,7.32-3.33,8-3.45a.47.47,0,0,1,.54.41l.34,4.46a.42.42,0,0,1-.16.38C91,256.54,88.45,258.62,86.46,258.62ZM90,252.18c-2.06.42-6.17,1.51-6.88,2.88a1.18,1.18,0,0,0-.07,1.13c.43.83,2,1.33,3.13,1.5s3.24-1.12,4.1-1.8Z"/><path fill="#231f20" d="M124.3,236.54S121.36,248,110.63,250.2s-16.28,1.61-20.08-5.63-1.29-11.68-1.29-11.68l33.86-.67Z"/><path fill="#231f20" d="M101.75,251.83c-5.29,0-8.93-1.85-11.65-7-3.88-7.4-1.38-12-1.27-12.15a.49.49,0,0,1,.42-.26l33.86-.67a.55.55,0,0,1,.5.37l1.17,4.32a.53.53,0,0,1,0,.25c0,.12-3.14,11.8-14,14A46.52,46.52,0,0,1,101.75,251.83ZM89.58,233.39c-.42,1-1.71,5,1.41,10.94,3.77,7.19,9.31,7.47,19.54,5.38,9.7-2,12.89-12,13.25-13.17l-1-3.81Z"/><path fill="#687093" d="M86.71,236.64s-5.55-17.93-4.82-29.16S90,195.41,92.49,195.2s16-2.28,21.06,3.66,13.93,33.76,13.93,33.76Z"/><path fill="#fff" d="M106.75,195.23l-.88,6a4.43,4.43,0,0,1-5.66,1.53c-3.79-1.57-3.86-4.46-3.86-4.46l1.8-11.09a21.76,21.76,0,0,0,5.66-10.41s3.34,5.83,8.18,7.14a46.84,46.84,0,0,1-1.19,7.84C110,194.68,106.81,195.2,106.75,195.23Z"/><path fill="#231f20" d="M102.26,203.71a5.77,5.77,0,0,1-2.25-.49c-4-1.67-4.15-4.78-4.16-4.91l1.8-11.18a.56.56,0,0,1,.16-.29,21.4,21.4,0,0,0,5.51-10.16.49.49,0,0,1,.42-.37.5.5,0,0,1,.5.24c0,.06,3.3,5.67,7.88,6.9a.51.51,0,0,1,.37.52,47,47,0,0,1-1.21,7.95,5.53,5.53,0,0,1-4.08,3.71l-.83,5.68a.4.4,0,0,1-.07.18A5,5,0,0,1,102.26,203.71Zm-3.65-16.25-1.76,10.92s.14,2.51,3.55,3.92a3.93,3.93,0,0,0,5-1.25l.85-5.89a.55.55,0,0,1,.25-.36l.2-.07a4.68,4.68,0,0,0,3.62-3.09,44.48,44.48,0,0,0,1.14-7.34c-3.6-1.16-6.3-4.58-7.46-6.27A22.13,22.13,0,0,1,98.61,187.46Zm7.26,13.77h0Z"/><path fill="#fff" d="M100.48,187.38a2.61,2.61,0,0,0-.65-1.51,4.61,4.61,0,0,0-1.27-.91,2,2,0,0,0-.81-.28,1.52,1.52,0,0,0-.59.12,2,2,0,0,0-1.1.84,2.37,2.37,0,0,0-.23,1.12,4.66,4.66,0,0,0,.11,1.24,3.16,3.16,0,0,0,3.87,2.28"/><path fill="#231f20" d="M99,190.88a3.64,3.64,0,0,1-3.55-2.76,5.1,5.1,0,0,1-.13-1.37,2.92,2.92,0,0,1,.29-1.35A2.45,2.45,0,0,1,97,184.33a2.08,2.08,0,0,1,.78-.15,2.51,2.51,0,0,1,1,.34,5.2,5.2,0,0,1,1.4,1,3.07,3.07,0,0,1,.78,1.8.5.5,0,1,1-1,.08,2.09,2.09,0,0,0-.53-1.21,4.09,4.09,0,0,0-1.14-.81,1.6,1.6,0,0,0-.59-.22.81.81,0,0,0-.4.09,1.5,1.5,0,0,0-.83.61,2,2,0,0,0-.17.89,4,4,0,0,0,.1,1.11,2.74,2.74,0,0,0,1.23,1.64,2.68,2.68,0,0,0,2,.27.51.51,0,0,1,.61.36.49.49,0,0,1-.35.61A3.71,3.71,0,0,1,99,190.88Z"/><path fill="#fff" d="M105.9,185.67s1.7,3.34,1.14,3.82-1.89,0-1.89,0"/><path fill="#231f20" d="M106.34,190.19a3.92,3.92,0,0,1-1.37-.28.5.5,0,1,1,.36-.93,2.37,2.37,0,0,0,1.32.17,10.81,10.81,0,0,0-1.19-3.25.5.5,0,1,1,.89-.45c1.87,3.69,1.23,4.24,1,4.42A1.54,1.54,0,0,1,106.34,190.19Z"/><ellipse cx="103.28" cy="184.88" fill="#231f20" rx=".73" ry=".52" transform="translate(-89.38 272.8) rotate(-85.34)"/><ellipse cx="108.63" cy="185.62" fill="#231f20" rx=".73" ry=".52" transform="translate(-84.55 280.15) rotate(-85.74)"/><path fill="#231f20" d="M105.46,192.86a4.45,4.45,0,0,1-2-.45,4.29,4.29,0,0,1-2.11-3.27.5.5,0,1,1,1-.17,3.33,3.33,0,0,0,1.59,2.55c1.68.88,4.11-.21,4.13-.22a.52.52,0,0,1,.67.25.51.51,0,0,1-.25.66A7.92,7.92,0,0,1,105.46,192.86Z"/><path fill="#231f20" d="M106.75,195.23s-3.86.32-5.88-1.26c0,0,1.7,5.39,5.28,5.38Z"/><path fill="#231f20" d="M106.13,199.85c-3.88,0-5.66-5.49-5.74-5.73a.52.52,0,0,1,.2-.56.5.5,0,0,1,.59,0c1.84,1.44,5.49,1.16,5.53,1.15a.52.52,0,0,1,.4.16.45.45,0,0,1,.13.41l-.6,4.12A.49.49,0,0,1,106.13,199.85Zm-4.26-4.75c.66,1.39,1.95,3.45,3.85,3.72l.45-3.06A11.86,11.86,0,0,1,101.87,195.1Z"/><path fill="#687093" d="M85.36,198.09c-3.07.61-12.55,30.92-8.21,34.13,6.78,5,27.46-1.83,27.46-1.83l-2.07-8.92s-14.93.71-15.2-2.35,8.34-17.43,7.13-19.53S85.36,198.09,85.36,198.09Z"/><path fill="#fff" d="M101,224.5a34.74,34.74,0,0,0,7.42-.5,22.35,22.35,0,0,1,5.54-.75,20.79,20.79,0,0,1,7.18,1.49.54.54,0,0,1,.25.16c.22.3-.29.61-.67.62a9.69,9.69,0,0,1-2.93-.31,28.54,28.54,0,0,1,6.68,3.38c.24.16.5.42.39.69s-.58.22-.89.09L118.57,227a13.68,13.68,0,0,1,3.84,2.23c.16.14.34.32.3.53-.07.37-.61.31-.94.15a31.14,31.14,0,0,1-4.7-2.74l3.35,2.46c0,.27-.23.5-.5.52a1.56,1.56,0,0,1-.77-.25l-3.72-2.06,2.33,1.57c.37.24.78.64.61,1.05s-.9.34-1.38.14a27.82,27.82,0,0,0-5.94-1.7,9.27,9.27,0,0,0-2.19-.4,19.78,19.78,0,0,0-3.34.8c-1.65.4-3.31.82-5,1.24"/><path fill="#231f20" d="M117.78,231.27a2.67,2.67,0,0,1-1-.22,27.45,27.45,0,0,0-5.84-1.67c-.26,0-.51-.12-.76-.18a4.24,4.24,0,0,0-1.33-.21,9.21,9.21,0,0,0-2.2.49c-.36.1-.71.21-1.05.29L100.68,231a.45.45,0,0,1-.56-.33.46.46,0,0,1,.33-.55l5-1.25c.33-.08.66-.18,1-.28a10.4,10.4,0,0,1,2.41-.52,5,5,0,0,1,1.61.23,5.49,5.49,0,0,0,.7.17,28.06,28.06,0,0,1,6,1.73,1.36,1.36,0,0,0,.76.13c0-.08-.06-.28-.43-.53l-2.32-1.56a.46.46,0,0,1,.47-.78l3.72,2.06a2,2,0,0,0,.3.14l-2.87-2.1a.47.47,0,0,1-.1-.64.46.46,0,0,1,.64-.1,31.33,31.33,0,0,0,4.62,2.7l.09,0a13.34,13.34,0,0,0-2.47-1.59l-1.19-.52a.45.45,0,0,1-.24-.59.46.46,0,0,1,.58-.26c.42.16.84.34,1.24.54l4.17,1.81.08,0h0a27.41,27.41,0,0,0-6.57-3.32.46.46,0,0,1,.27-.88,9.37,9.37,0,0,0,2.79.3h0a21,21,0,0,0-6.81-1.36,18.84,18.84,0,0,0-4.74.6l-.68.14A35.1,35.1,0,0,1,101,225a.44.44,0,0,1-.44-.46.46.46,0,0,1,.46-.45,34.87,34.87,0,0,0,7.32-.5l.68-.14a20.35,20.35,0,0,1,5-.62,21.22,21.22,0,0,1,7.35,1.53,1,1,0,0,1,.44.31.67.67,0,0,1,.07.72,1.26,1.26,0,0,1-1,.62,29.54,29.54,0,0,1,3.89,2.25c.75.51.63,1,.55,1.23a.76.76,0,0,1-.43.43,1.48,1.48,0,0,1-1.06-.09l-.64-.28a.91.91,0,0,1,0,.37.76.76,0,0,1-.41.54,1.42,1.42,0,0,1-1.18-.07c-.24-.11-.49-.23-.73-.36a.76.76,0,0,1-.15.26,1,1,0,0,1-.75.38,1.94,1.94,0,0,1-1-.3l-.06,0a1.05,1.05,0,0,1-.07.37.93.93,0,0,1-.53.52A1.16,1.16,0,0,1,117.78,231.27Z"/><path fill="#fff" d="M112,201.43c.84.82,3.18,13.91,4.06,20.1"/><path fill="#231f20" d="M116.05,222a.45.45,0,0,1-.45-.39c-1-6.84-3.22-19-3.93-19.84a.45.45,0,0,1,0-.65.46.46,0,0,1,.65,0c1.11,1.08,3.65,16.51,4.19,20.36a.45.45,0,0,1-.38.52Z"/><path fill="#231f20" d="M93.36,233.8a.5.5,0,0,1-.49-.4.5.5,0,0,1,.4-.59l6.82-1.31.06-7.82-13-1.08a.52.52,0,0,1-.37-.22.5.5,0,0,1-.07-.41l5.45-20.29a.5.5,0,0,1,.61-.35.48.48,0,0,1,.35.61l-5.29,19.71,12.88,1.07a.5.5,0,0,1,.46.5l-.06,8.69a.5.5,0,0,1-.41.49l-7.22,1.39Z"/><polygon fill="#fff" points="133.58 235.9 139.87 219.07 114.18 219.58 108.42 238.78 133.58 235.9"/><path fill="#231f20" d="M108.42,239.27a.49.49,0,0,1-.38-.18.51.51,0,0,1-.1-.46l5.76-19.19a.51.51,0,0,1,.47-.36l25.69-.51a.52.52,0,0,1,.42.21.56.56,0,0,1,.06.47l-6.29,16.83a.52.52,0,0,1-.42.32l-25.15,2.87Zm6.14-19.2-5.44,18.12,24.1-2.75,5.92-15.86Zm19,15.83h0Z"/><path fill="#231f20" d="M132.21,236.06s7,5.66,4.5,10.85S89.76,258,89.76,258l-2-6.78S122.68,233.41,132.21,236.06Z"/><path fill="#231f20" d="M89.76,258.53a.5.5,0,0,1-.48-.36l-2-6.78a.51.51,0,0,1,.25-.59c1.44-.73,35.21-17.89,44.82-15.22a.51.51,0,0,1,.18.09c.3.24,7.25,6,4.64,11.45-2.51,5.29-42.75,10.79-47.34,11.4Zm-1.41-7,1.77,6c17.77-2.39,44.43-7.19,46.14-10.78,2.13-4.49-3.54-9.55-4.29-10.19C123.12,234.24,92.1,249.62,88.35,251.5Z"/><path fill="#231f20" d="M85.44,233.46s34.58,14,43.16,17.67l-5,7.71s-31.93-.62-41.09-8.65S74,228.81,85.44,233.46Z"/><path fill="#231f20" d="M123.61,259.34h0c-1.31,0-32.22-.72-41.41-8.77-6-5.3-7.76-12.66-5.57-16.22,1.57-2.54,4.86-3,9-1.36h0c.34.14,34.68,14,43.16,17.68a.52.52,0,0,1,.29.31.52.52,0,0,1-.06.42l-5,7.71A.5.5,0,0,1,123.61,259.34ZM81.2,233a4.07,4.07,0,0,0-3.72,1.88c-2,3.2-.29,10,5.37,14.94,8.47,7.42,37.34,8.43,40.49,8.51l4.52-7c-9.31-4-42.27-17.29-42.61-17.43h0A10.93,10.93,0,0,0,81.2,233Z"/><path fill="#fff" d="M133.7,229.18a1.31,1.31,0,0,0,.25.55l.67,1a.73.73,0,0,0-1-.5,1.18,1.18,0,0,0-.61,1.06,3.23,3.23,0,0,0,.3,1.26c.47,1.24,1.56,3.06,3.12,2.12,1.06-.64,1.36-2.89,1.51-4,.29-2.21-.38-5-3.22-4.61a5.41,5.41,0,0,0,1.17,3C135.43,228.57,133.57,227.88,133.7,229.18Z"/><path fill="#231f20" d="M135.58,235.38a1.7,1.7,0,0,1-.59-.1,4.29,4.29,0,0,1-2.11-2.57,3.81,3.81,0,0,1-.33-1.43,1.6,1.6,0,0,1,.89-1.47h0a1.3,1.3,0,0,1-.21-.58h0a1,1,0,0,1,.55-1.14,1.59,1.59,0,0,1,.95-.08,5.59,5.59,0,0,1-.48-1.93.44.44,0,0,1,.38-.48,3,3,0,0,1,2.67.74c1.08,1.06,1.26,3,1.07,4.38s-.49,3.59-1.72,4.34A2.17,2.17,0,0,1,135.58,235.38Zm-1.67-4.75-.1,0a.73.73,0,0,0-.35.65,3.27,3.27,0,0,0,.27,1.09,3.36,3.36,0,0,0,1.56,2,1,1,0,0,0,.91-.15c.86-.51,1.15-2.7,1.28-3.63a4.61,4.61,0,0,0-.8-3.65,2,2,0,0,0-1.45-.53,5,5,0,0,0,1,2.28.48.48,0,0,1-.06.63.46.46,0,0,1-.62,0,1.89,1.89,0,0,0-1.38-.43c-.05,0,0,.16,0,.22h0a.91.91,0,0,0,.18.33l.33.5a1,1,0,0,1,.42.71.47.47,0,0,1-.3.48.46.46,0,0,1-.54-.18l-.22-.33Z"/><path fill="#fff" d="M124,249.83a.63.63,0,0,1-.19,0c-.75-.3-18.6-7.21-22.64-9.68a.52.52,0,1,1,.54-.88c4,2.43,22.29,9.52,22.48,9.59a.53.53,0,0,1,.29.67A.5.5,0,0,1,124,249.83Z"/><path fill="#231f20" d="M318.77,259.73a1.5,1.5,0,0,1-1.45-1.1L268.42,83.07a1.5,1.5,0,0,1,2.9-.8l48.89,175.56a1.49,1.49,0,0,1-1,1.85A1.83,1.83,0,0,1,318.77,259.73Z"/><path fill="#231f20" d="M283.47,259.73a1.48,1.48,0,0,1-1.44-1.1L233.13,83.07a1.5,1.5,0,0,1,2.89-.8l48.9,175.56a1.51,1.51,0,0,1-1.05,1.85A1.83,1.83,0,0,1,283.47,259.73Z"/><path fill="#231f20" d="M272.88,97.21H238.21a1.5,1.5,0,0,1,0-3h34.67a1.5,1.5,0,0,1,0,3Z"/><path fill="#231f20" d="M278.12,116H243.45a1.5,1.5,0,0,1,0-3h34.67a1.5,1.5,0,0,1,0,3Z"/><path fill="#231f20" d="M283.36,134.84H248.69a1.5,1.5,0,0,1,0-3h34.67a1.5,1.5,0,0,1,0,3Z"/><path fill="#231f20" d="M288.6,153.66H253.93a1.5,1.5,0,0,1,0-3H288.6a1.5,1.5,0,0,1,0,3Z"/><path fill="#231f20" d="M293.84,172.47H259.17a1.5,1.5,0,0,1,0-3h34.67a1.5,1.5,0,0,1,0,3Z"/><path fill="#231f20" d="M299.08,191.29H264.41a1.5,1.5,0,0,1,0-3h34.67a1.5,1.5,0,0,1,0,3Z"/><path fill="#231f20" d="M304.32,210.11H269.65a1.5,1.5,0,0,1,0-3h34.67a1.5,1.5,0,1,1,0,3Z"/><path fill="#231f20" d="M309.56,228.92H274.89a1.5,1.5,0,0,1,0-3h34.67a1.5,1.5,0,0,1,0,3Z"/><path fill="#231f20" d="M314.8,247.74H280.13a1.5,1.5,0,0,1,0-3H314.8a1.5,1.5,0,0,1,0,3Z"/><path fill="#fff" d="M293.49,104.44s-5.93-7.87-3.51-13.08c0,0-2.22-.69-.11-3.4a11.09,11.09,0,0,1,13.67-2.61l-2,1a7.71,7.71,0,0,1,9.09,3.72l-2.22.81-1.3,10.87Z"/><path fill="#231f20" d="M293.49,104.9a.44.44,0,0,1-.36-.19c-.25-.32-5.78-7.76-3.74-13.13a1.88,1.88,0,0,1-.8-1,3.29,3.29,0,0,1,.92-2.89,11.6,11.6,0,0,1,14.23-2.74.44.44,0,0,1,.26.4.46.46,0,0,1-.06.23,8,8,0,0,1,7.13,4.27.46.46,0,0,1,0,.38.48.48,0,0,1-.28.28l-1.95.71-1.27,10.6a.46.46,0,0,1-.36.39l-13.67,2.69Zm4.75-20.36a10.38,10.38,0,0,0-8,3.7c-.66.85-.93,1.55-.78,2.05a1.12,1.12,0,0,0,.65.64.44.44,0,0,1,.28.25.47.47,0,0,1,0,.37c-2.05,4.43,2.37,11.07,3.3,12.38l13.06-2.56L308,90.82a.44.44,0,0,1,.3-.37l1.69-.62a7.16,7.16,0,0,0-8.24-3,.46.46,0,0,1-.58-.25.46.46,0,0,1,.21-.58l1.1-.57A11.41,11.41,0,0,0,298.24,84.54Z"/><rect width="3.9" height="29.09" x="315.42" y="170.32" fill="#fff" rx="1.87" transform="translate(603.08 415.67) rotate(-171.29)"/><path fill="#231f20" d="M315.54,199.74l-.36,0-.17,0h0a2.32,2.32,0,0,1-1.94-2.64L316.91,172a2.3,2.3,0,0,1,.92-1.51,2.33,2.33,0,0,1,1.73-.43l.17,0a2.32,2.32,0,0,1,1.94,2.64l-3.84,25.08a2.3,2.3,0,0,1-.92,1.52A2.34,2.34,0,0,1,315.54,199.74Zm-.39-1,.17,0a1.42,1.42,0,0,0,1.61-1.18l3.84-25.07a1.39,1.39,0,0,0-.26-1.05,1.42,1.42,0,0,0-.92-.56l-.17,0a1.41,1.41,0,0,0-1.05.25,1.37,1.37,0,0,0-.55.92L314,197.17a1.42,1.42,0,0,0,1.18,1.61Z"/><path fill="#fff" d="M318.77,158.51s-4.54,16.67-2.59,15.83c2.2-1,3.39-6,3.39-6s1.65,2.81,1.65,4.32-2.1,6.72-.44,7.06,5.73-8.4,5.27-10.42a26.09,26.09,0,0,0-1.8-4.73l.75-4.67"/><path fill="#231f20" d="M320.88,180.15a.58.58,0,0,1-.19,0,1,1,0,0,1-.73-.51c-.55-.86-.2-2.55.37-4.83a12.75,12.75,0,0,0,.43-2.17,8.77,8.77,0,0,0-1.05-3.09c-.51,1.61-1.62,4.48-3.35,5.23a.72.72,0,0,1-.76-.1c-1.2-1,1.19-10.64,2.73-16.27a.45.45,0,0,1,.56-.32.46.46,0,0,1,.32.56c-1.79,6.56-3.35,13.8-3,15.2,1.54-.87,2.65-4.32,3-5.62a.45.45,0,0,1,.37-.35.47.47,0,0,1,.47.22c.07.12,1.71,2.93,1.71,4.54a12.84,12.84,0,0,1-.46,2.39c-.35,1.4-.88,3.52-.49,4.13a.2.2,0,0,0,.14.1s.19,0,.62-.43c1.94-2,4.43-8,4.12-9.44a26.17,26.17,0,0,0-1.77-4.62.47.47,0,0,1,0-.28l.76-4.68a.46.46,0,0,1,.52-.37.45.45,0,0,1,.38.52l-.73,4.53a26,26,0,0,1,1.78,4.7c.43,1.91-2.49,8.38-4.36,10.28A1.87,1.87,0,0,1,320.88,180.15ZM316.23,174h0Z"/><path fill="#fff" d="M278.23,179.7l3.63,9s-10.63,4.16-13.51,4.77-3-.7.9-4.27c3-2.79,4.17-3.16,4.17-3.16l-1.94-3.49Z"/><path fill="#231f20" d="M267.21,194.09a1.34,1.34,0,0,1-1.29-.59c-.3-.58-.23-1.62,3-4.62a21.38,21.38,0,0,1,3.85-3l-1.71-3.06a.5.5,0,0,1,0-.38.44.44,0,0,1,.25-.27l6.75-2.86a.53.53,0,0,1,.35,0,.44.44,0,0,1,.25.25l3.64,9a.47.47,0,0,1,0,.35.51.51,0,0,1-.25.25c-.44.17-10.7,4.18-13.58,4.79A6.18,6.18,0,0,1,267.21,194.09Zm4.92-11.3,1.69,3a.45.45,0,0,1,0,.39.46.46,0,0,1-.29.27s-1.15.42-4,3.06c-3.07,2.83-2.84,3.52-2.83,3.53s.23.23,1.53,0c2.48-.53,11-3.8,13-4.59L278,180.31Z"/><path fill="#fff" d="M295.69,216.88a17.88,17.88,0,0,1-.41,5.36,20.61,20.61,0,0,0-1,7.22c.25,1.93,2.31,4.25,4.35,3.31s2.84-6.81,2.77-8.39a42.25,42.25,0,0,1,.18-7.86Z"/><path fill="#231f20" d="M297.61,233.44a3,3,0,0,1-1.46-.4,5,5,0,0,1-2.37-3.52c-.32-2.47.73-6.3,1.06-7.41a17.69,17.69,0,0,0,.4-5.2.44.44,0,0,1,.11-.33.43.43,0,0,1,.32-.16l5.83-.35a.42.42,0,0,1,.37.16.45.45,0,0,1,.1.39,40.53,40.53,0,0,0-.17,7.57v.17c.05,1.23-.6,7.69-3,8.82A2.83,2.83,0,0,1,297.61,233.44Zm-1.43-16.14a17.31,17.31,0,0,1-.46,5.07,20.28,20.28,0,0,0-1,7,4,4,0,0,0,1.9,2.84,1.88,1.88,0,0,0,1.79.11c1.7-.79,2.59-6.24,2.52-8v-.16A46.6,46.6,0,0,1,301,217Z"/><path fill="#231f20" d="M311.78,139.89c-1.07-.67-25.08,4.59-25.08,4.59s-29.1,5.26-28.33,12.56S271,184,271,184l8.95-2.45-7.88-19h17.79S296,206,294.25,218.87l8.72,1.36Z"/><path fill="#231f20" d="M303,220.67h-.07l-8.71-1.36a.43.43,0,0,1-.37-.49c1.59-12.07-3.74-51.48-4.33-55.79H272.74l7.63,18.35a.48.48,0,0,1,0,.37.49.49,0,0,1-.28.23l-8.95,2.44a.45.45,0,0,1-.5-.19c-.48-.81-11.92-19.82-12.69-27.12-.81-7.62,27.47-12.82,28.68-13,7.25-1.59,24.28-5.23,25.39-4.53a.44.44,0,0,1,.2.42l-8.8,80.33a.53.53,0,0,1-.17.31A.46.46,0,0,1,303,220.67Zm-8.23-2.17,7.84,1.22,8.71-79.46c-2.43,0-16,2.79-24.5,4.65-8,1.45-28.58,6.43-28,12.08.71,6.64,10.95,24,12.41,26.47l8.14-2.22-7.69-18.51a.46.46,0,0,1,0-.41.46.46,0,0,1,.37-.2h0l17.8,0a.45.45,0,0,1,.43.38C290.56,164.28,296.26,205.2,294.74,218.5Z"/><path fill="#687093" d="M310.94,162.35l-33.22-17s8.83-29.36,12.89-33.7,20.53-2.13,22.94,2.13S313.14,146.05,310.94,162.35Z"/><path fill="#fff" d="M295.89,107.22l-.4,5.65a3,3,0,0,0,3.88,2.46,7.16,7.16,0,0,0,4.83-3.77s.87-13.56,1.16-17.14A18.17,18.17,0,0,1,298.24,92a4.35,4.35,0,0,0-1.06-.61c-.7-.11-.61.29-.93.89a5.45,5.45,0,0,1-2.57,2.47.84.84,0,0,0-.36.25.65.65,0,0,0-.08.31c-.36,3.23-1,6.45-.56,9.7C293.06,107.7,295.89,107.22,295.89,107.22Z"/><path fill="#231f20" d="M298.37,115.9a3.24,3.24,0,0,1-1.95-.59,3.7,3.7,0,0,1-1.38-2.38l.36-5.22a3.49,3.49,0,0,1-2-.6,3,3,0,0,1-1.14-2,28.58,28.58,0,0,1,.31-7.74c.09-.69.18-1.38.25-2.07a1.27,1.27,0,0,1,.15-.49,1.13,1.13,0,0,1,.55-.43,5.06,5.06,0,0,0,2.37-2.27,3.05,3.05,0,0,0,.15-.35,1,1,0,0,1,1.25-.78,2.48,2.48,0,0,1,.93.47l.28.19A17.54,17.54,0,0,0,305.4,94a.47.47,0,0,1,.31.16.44.44,0,0,1,.11.33c-.29,3.55-1.16,17-1.17,17.14a.28.28,0,0,1,0,.15,7.5,7.5,0,0,1-5.15,4A5.39,5.39,0,0,1,298.37,115.9Zm-2.42-3a2.89,2.89,0,0,0,1,1.67,2.82,2.82,0,0,0,2.31.31,6.73,6.73,0,0,0,4.48-3.44c.07-1.12.82-12.68,1.12-16.61A19.27,19.27,0,0,1,298,92.39l-.37-.24a2.48,2.48,0,0,0-.53-.32.67.67,0,0,0-.19,0,1.64,1.64,0,0,1-.08.22c-.05.13-.11.28-.19.44a5.92,5.92,0,0,1-2.79,2.67.75.75,0,0,0-.17.1.46.46,0,0,1,0,.1c-.08.7-.17,1.39-.26,2.09a27.65,27.65,0,0,0-.3,7.49,2,2,0,0,0,.77,1.44,2.84,2.84,0,0,0,1.91.4.44.44,0,0,1,.38.11.44.44,0,0,1,.15.37L296,112.9Z"/><path fill="#231f20" d="M295.74,110a5.5,5.5,0,0,0,3.87-1.19,4,4,0,0,0,1.45-3,11.11,11.11,0,0,1-5.17,1.4Z"/><path fill="#231f20" d="M296.15,110.46c-.26,0-.43,0-.45,0a.45.45,0,0,1-.4-.46l.15-2.78a.45.45,0,0,1,.45-.42,10.86,10.86,0,0,0,4.94-1.34.44.44,0,0,1,.66.34,4.39,4.39,0,0,1-1.6,3.35A5.66,5.66,0,0,1,296.15,110.46Zm.15-2.8-.09,1.91a4.76,4.76,0,0,0,3.1-1.09,4,4,0,0,0,1.21-1.9A10.81,10.81,0,0,1,296.3,107.66Z"/><path fill="#fff" d="M298.67,98.33s-2,2.61-1.58,3.1,1.63.27,1.63.27"/><path fill="#231f20" d="M298.09,102.2a1.69,1.69,0,0,1-1.35-.49c-.15-.19-.62-.77,1.58-3.65a.45.45,0,0,1,.71.54,9.36,9.36,0,0,0-1.55,2.6,2.08,2.08,0,0,0,1.16.06.43.43,0,0,1,.51.35.44.44,0,0,1-.35.52A3.78,3.78,0,0,1,298.09,102.2Zm-.62-1h0Z"/><ellipse cx="296.33" cy="97.33" fill="#231f20" rx=".59" ry=".31" transform="translate(169.21 382.16) rotate(-84.13)"/><ellipse cx="301.59" cy="97.51" fill="#231f20" rx=".59" ry=".31" transform="translate(194.07 395.68) rotate(-88.09)"/><path fill="#fff" d="M304.14,99.68c.66-.81,1.69-2.29,2.91-1.74a2.06,2.06,0,0,1,.81.68,3.65,3.65,0,0,1-.07,4.09c-.65,1.09-2.55,2.69-3.69,1.2"/><path fill="#231f20" d="M305.24,105a1.87,1.87,0,0,1-1.51-.79.46.46,0,0,1,.73-.55.92.92,0,0,0,.84.43,3.59,3.59,0,0,0,2.19-5.16,1.66,1.66,0,0,0-.62-.55c-.74-.33-1.47.48-2.21,1.41l-.16.2a.46.46,0,1,1-.71-.57l.15-.2c.69-.87,1.85-2.31,3.3-1.67a2.46,2.46,0,0,1,1,.83,4.06,4.06,0,0,1,0,4.6,4.2,4.2,0,0,1-2.82,2Z"/><path fill="#231f20" d="M298.22,104.88a3.53,3.53,0,0,1-2.59-1.26.45.45,0,1,1,.65-.61,2.6,2.6,0,0,0,2.06,1,4.45,4.45,0,0,0,2.76-1.69.44.44,0,0,1,.62-.08.43.43,0,0,1,.08.62,5.31,5.31,0,0,1-3.42,2Z"/><path fill="#687093" d="M313.55,113.75s10.11,6.68,15.07,22.06c2.41,7.48-2.49,27.5-2.49,27.5l-9.29-3.77s2.48-15.38,2-17.43-13.2-16.2-13.2-16.2Z"/><path fill="#fff" d="M262.07,115.86s-8.5-7.85-9.29-7.65-4.46,2.6-4.38,3.3.13,1.42.13,1.42a5.65,5.65,0,0,1,1.92-.18,24.33,24.33,0,0,1,2,2.41c.47.6-2.16,1.21-2.16,1.21a19.4,19.4,0,0,0,3.19.79,19.73,19.73,0,0,1,3.89,1.39Z"/><path fill="#231f20" d="M257.32,119a.49.49,0,0,1-.2-.05,18.54,18.54,0,0,0-3.73-1.35,19.57,19.57,0,0,1-3.3-.8.47.47,0,0,1-.31-.46.46.46,0,0,1,.35-.42,7,7,0,0,0,1.79-.64l-.14-.19c-.34-.45-1.35-1.79-1.58-2a10,10,0,0,0-1.57.25.47.47,0,0,1-.56-.42s0-.71-.12-1.39c-.15-1.2,4.17-3.66,4.72-3.8.26-.06,1-.26,9.71,7.75a.46.46,0,0,1-.08.74L257.54,119A.46.46,0,0,1,257.32,119Zm-5.51-2.65a9.52,9.52,0,0,0,1.65.34,17.07,17.07,0,0,1,3.83,1.34l4-2.27c-3.67-3.37-7.68-6.8-8.48-7.09-.86.29-3.78,2.31-4,2.85,0,.29.07.59.09.84,1.35-.25,1.65-.07,1.75,0a12.93,12.93,0,0,1,1.82,2.19l.25.33a.71.71,0,0,1,.12.66A1.83,1.83,0,0,1,251.81,116.36Zm.23-.92Z"/><path fill="#687093" d="M291.93,110.93s-15.92,9.95-18.29,9.39-13.11-6.56-13.11-6.56L255.94,119s11.08,12.51,16.45,11.14,19.4-9.44,19.4-9.44Z"/><path fill="#fff" d="M290.94,113.38s-8.19,17.22-11.51,26.45"/><path fill="#231f20" d="M279.43,140.29a.4.4,0,0,1-.15,0,.46.46,0,0,1-.28-.58c3.29-9.15,11.44-26.32,11.53-26.5a.46.46,0,0,1,.82.4c-.08.17-8.21,17.3-11.49,26.4A.46.46,0,0,1,279.43,140.29Z"/><path fill="#fff" d="M318.79,142.11s-9.24-12.21-13.2-16.2"/><path fill="#231f20" d="M318.79,142.57a.47.47,0,0,1-.37-.19c-.09-.12-9.26-12.23-13.15-16.14a.46.46,0,0,1,.65-.65c3.93,4,12.85,15.74,13.23,16.24a.46.46,0,0,1-.09.64A.41.41,0,0,1,318.79,142.57Z"/><path fill="#231f20" d="M166.43,252.93A10.73,10.73,0,0,1,159.9,251c-2.43-1.81-3.93-4.89-4.46-9.18-.83-6.75-3.2-11.64-7-14.53a14.84,14.84,0,0,0-10.32-2.74.49.49,0,0,1-.57-.41.51.51,0,0,1,.41-.58A15.59,15.59,0,0,1,149,226.49c4.08,3.06,6.59,8.18,7.45,15.22.5,4,1.86,6.86,4.06,8.5,3.3,2.45,7.81,1.68,10.23,1.27.45-.08.84-.15,1.14-.18,8.83-1,10.66-18.52,12.14-32.61.35-3.34.68-6.49,1.08-9.23a.5.5,0,0,1,1,.15c-.4,2.72-.73,5.86-1.08,9.18-1.51,14.45-3.39,32.43-13,33.5l-1.08.17A25.53,25.53,0,0,1,166.43,252.93Z"/><rect width="79.9" height="60.99" x="74.35" y="78.95" fill="#fff"/><path fill="#d1d3d4" d="M154.25,140.46H74.35a.51.51,0,0,1-.51-.51V79a.51.51,0,0,1,.51-.51h79.9a.51.51,0,0,1,.52.51v61A.51.51,0,0,1,154.25,140.46Zm-79.38-1h78.87v-60H74.87Z"/><circle cx="192.66" cy="210.97" r="2.13" fill="#687093"/><path fill="#d1d3d4" d="M144.5,129.45H86.16a.51.51,0,0,1-.52-.51V87.49a.52.52,0,1,1,1,0v40.93H144.5a.52.52,0,0,1,0,1Z"/><path fill="#d1d3d4" d="M86.16,129.45a.69.69,0,0,1-.24,0,.52.52,0,0,1-.22-.7C86,128,94.09,112.4,102,115a16.63,16.63,0,0,1,5.51,3.39c3.08,2.58,4.94,4.14,11.87-2.26,5.3-4.9,7.83-10.72,9.86-15.4s3.7-8.53,7.27-9.76a.51.51,0,1,1,.34,1c-3.14,1.09-4.69,4.67-6.66,9.2-2.07,4.77-4.65,10.7-10.11,15.74-7.23,6.69-9.74,5.23-13.23,2.3a15.74,15.74,0,0,0-5.18-3.2c-7-2.38-14.93,13-15,13.15A.51.51,0,0,1,86.16,129.45Z"/><rect width="39.74" height="28.35" x="135.5" y="148.18" fill="#fff"/><path fill="#d1d3d4" d="M175.24,177H135.5a.51.51,0,0,1-.51-.51V148.18a.51.51,0,0,1,.51-.52h39.74a.52.52,0,0,1,.52.52v28.35A.51.51,0,0,1,175.24,177ZM136,176h38.71V148.69H136Z"/><path fill="#d1d3d4" d="M150.08,171.86a9.51,9.51,0,1,1,0-19,9.41,9.41,0,0,1,5.38,1.68.51.51,0,0,1,.14.71l-4.54,6.61h8a.51.51,0,0,1,.52.51A9.52,9.52,0,0,1,150.08,171.86Zm0-18a8.48,8.48,0,1,0,8.46,9h-8.46a.52.52,0,0,1-.46-.28.51.51,0,0,1,0-.53l4.8-7A8.4,8.4,0,0,0,150.08,153.87Z"/><path fill="#d1d3d4" d="M159.07,153.86,154.38,160h7.91A7.56,7.56,0,0,0,159.07,153.86Z"/><path fill="#d1d3d4" d="M171.26,165.06h-9a.52.52,0,0,1,0-1h9a.52.52,0,1,1,0,1Z"/><path fill="#d1d3d4" d="M168.21,168.67h-5.92a.52.52,0,0,1,0-1h5.92a.52.52,0,1,1,0,1Z"/></g></svg>