<svg xmlns="http://www.w3.org/2000/svg" viewBox="0 0 400 300"><g id="_116_team_meeting_flatline" data-name="#116_team_meeting_flatline"><path d="M340.78,218H59.22a.5.5,0,0,1-.5-.5.5.5,0,0,1,.5-.5H340.78a.5.5,0,0,1,.5.5A.5.5,0,0,1,340.78,218Z" fill="#d1d3d4"/><path d="M209.39,103h8.31a24.94,24.94,0,0,1,24.94,24.94v27.36a0,0,0,0,1,0,0H184.46a0,0,0,0,1,0,0V127.9A24.94,24.94,0,0,1,209.39,103Z" fill="#231f20"/><path d="M242.65,155.71H184.46a.45.45,0,0,1-.45-.45V127.9a25.41,25.41,0,0,1,25.38-25.38h8.32a25.41,25.41,0,0,1,25.38,25.38v27.36A.45.45,0,0,1,242.65,155.71Zm-57.75-.89h57.3V127.9a24.52,24.52,0,0,0-24.49-24.5h-8.32a24.52,24.52,0,0,0-24.49,24.5Z" fill="#231f20"/><path d="M233.05,87.39a30.3,30.3,0,0,1-1.2,10.11c-1.14,4.13-.8,8.91-1,13.18a24.85,24.85,0,0,1-.68,5.44c-1.62,5.9-7.45,9.94-13.48,11A20.65,20.65,0,0,1,199,121.88a17.69,17.69,0,0,1-4.69-17.52,11.2,11.2,0,0,1,2.81-4.78c1.46-1.4,3.38-2.24,4.9-3.58,3.67-3.26,4.22-8.67,6.06-13.22A10,10,0,0,1,211.55,78a10.82,10.82,0,0,1,6.32-1.38c4.79.11,10.63,1.72,13.56,5.82A10,10,0,0,1,233.05,87.39Z" fill="#fff"/><path d="M213.14,127.84a20.81,20.81,0,0,1-14.44-5.63,18.13,18.13,0,0,1-4.8-18,11.52,11.52,0,0,1,2.92-5,17.88,17.88,0,0,1,2.63-2,18.86,18.86,0,0,0,2.28-1.64c2.51-2.23,3.5-5.47,4.55-8.91.42-1.38.85-2.8,1.39-4.15a10.46,10.46,0,0,1,3.62-5c2.09-1.4,4.76-1.49,6.59-1.46,2.3.06,10.08.65,13.92,6a10.46,10.46,0,0,1,1.71,5.18h0a31.19,31.19,0,0,1-1.22,10.28,38.34,38.34,0,0,0-.91,9.42c0,1.22,0,2.47-.1,3.66a26.18,26.18,0,0,1-.7,5.54c-1.78,6.48-8.24,10.35-13.85,11.3A20.71,20.71,0,0,1,213.14,127.84Zm4.11-50.78a9.72,9.72,0,0,0-5.45,1.31A9.6,9.6,0,0,0,208.52,83c-.53,1.3-1,2.71-1.37,4.07-1,3.4-2.11,6.92-4.81,9.32A19.85,19.85,0,0,1,200,98.07a16.13,16.13,0,0,0-2.5,1.84,10.65,10.65,0,0,0-2.68,4.59,17.18,17.18,0,0,0,4.57,17,20.15,20.15,0,0,0,17.24,5.09c5.32-.91,11.44-4.55,13.12-10.64a25.36,25.36,0,0,0,.67-5.35c.06-1.17.08-2.36.1-3.62a39,39,0,0,1,.94-9.65,30.28,30.28,0,0,0,1.19-9.95h0a9.6,9.6,0,0,0-1.54-4.74c-2.86-4-8.69-5.52-13.2-5.62Z" fill="#231f20"/><path d="M235.74,201.36c1.52-17.11.95-38-6.94-54.7l-33.33,3.92c0,.27-6.12,29.43-10.63,50.78Z" fill="#231f20"/><polygon points="202.07 150.71 206 106.31 226.7 107.22 225.9 151.88 202.07 150.71" fill="#fff"/><path d="M225.9,152.34h0l-23.82-1.17a.49.49,0,0,1-.32-.16.47.47,0,0,1-.11-.34l3.92-44.41a.44.44,0,0,1,.48-.41l20.7.92a.44.44,0,0,1,.43.46l-.8,44.66a.47.47,0,0,1-.14.33A.52.52,0,0,1,225.9,152.34Zm-23.33-2.06,22.88,1.12.78-43.74-19.82-.88Z" fill="#231f20"/><path d="M244.68,124.24l-12.48,4.1L234.62,153l-14.06,2,1.32-45.68-11.75,0c0,.44-4,33.71-4.87,43.52L192,150.7l5.52-23-9.34-6.58s5.48-16.72,21.78-16.38c15,.32,9.78.52,9.48.54.3,0,11.89-.38,17.44,6.56A55.86,55.86,0,0,1,244.68,124.24Z" fill="#687093"/><path d="M211.57,102.55s-1.09,7.34-1.09,7.34.07,4.24,4.76,3.72a9.36,9.36,0,0,0,6.81-4.3s2.33-18,2.48-19.31c-.8.24-3.06.74-3.8.3s-.5-3-.47-3.76a9.54,9.54,0,0,0-1.9,3.26l-3.07-.37a8.63,8.63,0,0,1,0-3.47,7.78,7.78,0,0,0-1.74,3.09c-.86-.12-4-1.12-4.62-.5-.94.91-2.54,7.94-.95,10.74S211.57,102.55,211.57,102.55Z" fill="#fff"/><path d="M214.47,114.12a4.41,4.41,0,0,1-3-1,4.68,4.68,0,0,1-1.44-3.2c0-.06.81-5.54,1-7a7.36,7.36,0,0,1-3.46-3.35c-1.67-2.94-.07-10.21,1-11.29.61-.6,2.14-.29,4.07.17l.56.14A8.21,8.21,0,0,1,215,85.66a.45.45,0,0,1,.78.4,8.41,8.41,0,0,0-.07,3l2.37.28a10.09,10.09,0,0,1,1.87-3.07.45.45,0,0,1,.79.32v.35c-.12,2.41.11,2.92.26,3,.49.28,2.35,0,3.44-.35a.45.45,0,0,1,.42.09.44.44,0,0,1,.16.4c-.14,1.3-2.38,18.59-2.47,19.32a.49.49,0,0,1-.06.17,9.77,9.77,0,0,1-7.16,4.53A8,8,0,0,1,214.47,114.12ZM210.94,110a3.84,3.84,0,0,0,1.14,2.46,3.89,3.89,0,0,0,3.11.74,9,9,0,0,0,6.42-4c.17-1.29,2-15.17,2.39-18.55-1,.23-2.72.55-3.5.08-.63-.37-.76-1.47-.75-2.73a9.13,9.13,0,0,0-1,2,.45.45,0,0,1-.48.3l-3.07-.37a.44.44,0,0,1-.39-.36,8.62,8.62,0,0,1-.18-1.9,7.38,7.38,0,0,0-.66,1.56.45.45,0,0,1-.5.32,10.43,10.43,0,0,1-1-.22c-.71-.17-2.87-.68-3.22-.4-.74.72-2.36,7.56-.88,10.18a6.09,6.09,0,0,0,3.29,3,.46.46,0,0,1,.34.51c0,.08-1.07,7.22-1.08,7.34Z" fill="#231f20"/><path d="M222.74,95a2.54,2.54,0,0,1,1.06-1.27,4.45,4.45,0,0,1,1.47-.52,1.93,1.93,0,0,1,.86,0,1.59,1.59,0,0,1,.53.28,2,2,0,0,1,.83,1.12,2.45,2.45,0,0,1-.09,1.14,4.84,4.84,0,0,1-.46,1.16A3.15,3.15,0,0,1,222.58,98" fill="#fff"/><path d="M224.22,98.86a3.56,3.56,0,0,1-1.85-.51.4.4,0,0,1,.41-.68,2.83,2.83,0,0,0,2.11.31,2.78,2.78,0,0,0,1.7-1.28,4.1,4.1,0,0,0,.42-1.06,2,2,0,0,0,.09-1,1.66,1.66,0,0,0-.67-.89,1.09,1.09,0,0,0-.4-.21,1.56,1.56,0,0,0-.67,0,4.43,4.43,0,0,0-1.35.47,2.26,2.26,0,0,0-.9,1.08.4.4,0,1,1-.74-.29,3,3,0,0,1,1.22-1.46,4.75,4.75,0,0,1,1.6-.57,2.23,2.23,0,0,1,1,0,2.06,2.06,0,0,1,.68.34,2.39,2.39,0,0,1,1,1.35,2.79,2.79,0,0,1-.1,1.33,5.25,5.25,0,0,1-.5,1.27,3.59,3.59,0,0,1-2.19,1.64A3.24,3.24,0,0,1,224.22,98.86Z" fill="#231f20"/><path d="M211.27,105.47s2.88,1.31,5.13-.36a5.23,5.23,0,0,0,2.3-3.73s-4.23,2.3-7.13,1.32Z" fill="#231f20"/><path d="M213.7,106.4a7.12,7.12,0,0,1-2.62-.53.44.44,0,0,1-.25-.45l.3-2.77a.43.43,0,0,1,.2-.32.46.46,0,0,1,.38,0c2.68.91,6.73-1.26,6.78-1.29a.46.46,0,0,1,.44,0,.47.47,0,0,1,.21.39,5.66,5.66,0,0,1-2.48,4.07A4.86,4.86,0,0,1,213.7,106.4Zm-2-1.22a4.92,4.92,0,0,0,4.4-.42,5.34,5.34,0,0,0,2-2.6c-1.31.59-3.94,1.57-6.14,1.1Z" fill="#231f20"/><path d="M212.19,90.86s-2.95,3.15-2.49,3.86,2.11.56,2.11.56" fill="#fff"/><path d="M211.42,95.74a2.53,2.53,0,0,1-2.09-.78c-.43-.66.42-2.14,2.54-4.4a.43.43,0,0,1,.62,0,.44.44,0,0,1,0,.63c-1.32,1.41-2.45,3-2.41,3.36.19.28,1.11.36,1.67.31a.44.44,0,0,1,.48.4.45.45,0,0,1-.4.48Z" fill="#231f20"/><ellipse cx="216.1" cy="91.7" rx="0.84" ry="0.59" transform="translate(51.37 258.94) rotate(-68.42)" fill="#231f20"/><ellipse cx="209.59" cy="90.77" rx="0.84" ry="0.59" transform="translate(48.11 252.3) rotate(-68.42)" fill="#231f20"/><path d="M208.66,96.58s1.61,3.5,5.84,1.09" fill="#fff"/><path d="M211.75,99a3.83,3.83,0,0,1-1.18-.18,4.09,4.09,0,0,1-2.31-2,.44.44,0,1,1,.8-.37,3.23,3.23,0,0,0,1.79,1.54,4.34,4.34,0,0,0,3.43-.66.44.44,0,0,1,.44.77A6,6,0,0,1,211.75,99Z" fill="#231f20"/><line x1="200.35" y1="122.42" x2="203.03" y2="115.56" fill="#fff"/><path d="M200.35,122.88a.33.33,0,0,1-.17,0,.45.45,0,0,1-.26-.59l2.68-6.86a.46.46,0,0,1,.86.33l-2.69,6.86A.46.46,0,0,1,200.35,122.88Z" fill="#231f20"/><path d="M242.17,125.06s9.56,21.89,10.16,24.22-27.61,23.48-31.06,25.16-8.66,3.78-11.17.22c-1.78-2.51,5.73-5.75,5.73-5.75s-3.88-2.73-2.45-3.56,7.59.51,7.59.51l17.32-17.72-8.52-18.82" fill="#fff"/><path d="M214.11,177.07a5,5,0,0,1-4.39-2.14,1.89,1.89,0,0,1-.28-1.63c.55-1.92,3.95-3.75,5.5-4.49-.95-.74-2.38-2-2.33-3a1,1,0,0,1,.54-.86c1.41-.82,6.2.1,7.67.41l16.92-17.31-8.39-18.54a.45.45,0,0,1,.23-.6.44.44,0,0,1,.6.22L238.7,148a.44.44,0,0,1-.09.5L221.3,166.18a.48.48,0,0,1-.43.13c-2.31-.51-6.33-1.11-7.26-.57-.09,0-.09.08-.09.11,0,.5,1.31,1.79,2.58,2.68a.49.49,0,0,1,.19.42.46.46,0,0,1-.28.38c-1.42.61-5.22,2.57-5.69,4.22a1,1,0,0,0,.15.85c2.26,3.21,7.13,1.33,10.6-.37,4-1.94,30.65-22.34,30.82-24.67-.59-2.23-10-23.9-10.14-24.12a.45.45,0,0,1,.23-.6.47.47,0,0,1,.61.24c.39.89,9.58,22,10.19,24.28.78,3-29.2,24.66-31.31,25.69S216.53,177.07,214.11,177.07Z" fill="#231f20"/><path d="M188.19,121.08l-4.26,7.35s-17.15-11.07-17.48-13.08-1.61-8.67-2.95-9.82-1.13,4.83-1.13,4.83-6.65-7.56-7.32-5.87c-.79,1.94-2.05,6.07-.4,8.48,1.76,2.59,7,7.22,7,7.22s21.52,26.52,24.64,26.41,11.22-18.94,11.22-18.94" fill="#fff"/><path d="M186.3,147.06c-3.26,0-21.37-22.13-25-26.58-.17-.13-5.27-4.64-7-7.25s-.37-7.13.35-8.92a.82.82,0,0,1,.63-.51c1.35-.23,4.8,3.32,6.64,5.34,0-1.73.19-3.77,1-4.14a.84.84,0,0,1,.94.18c1.62,1.4,3,9.21,3.1,10.1.24,1.15,8.7,7.21,16.88,12.51l4-6.94a.47.47,0,0,1,.63-.16.45.45,0,0,1,.16.62l-4.25,7.35a.49.49,0,0,1-.29.22.47.47,0,0,1-.36-.07c-2.89-1.86-17.33-11.28-17.68-13.38-.53-3.21-1.75-8.63-2.79-9.55a13.1,13.1,0,0,0-.39,4.46.44.44,0,0,1-.28.44.48.48,0,0,1-.52-.12c-2.93-3.33-6-6.06-6.61-6-.46,1.24-2,5.62-.39,8s6.9,7.09,6.95,7.13c8.3,10.22,22.15,26.3,24.31,26.3h0c2.06-.08,7.74-11.49,10.82-18.67a.46.46,0,0,1,.6-.24.45.45,0,0,1,.24.6c-1.37,3.19-8.38,19.1-11.63,19.22Z" fill="#231f20"/><path d="M162.37,110.36s-2.26,2.55-1.54,4.48" fill="#fff"/><path d="M160.83,115.3a.47.47,0,0,1-.43-.3c-.8-2.16,1.53-4.83,1.63-4.94a.45.45,0,0,1,.68.6c-.58.66-2,2.65-1.45,4a.46.46,0,0,1-.27.59A.41.41,0,0,1,160.83,115.3Z" fill="#231f20"/><line x1="228.62" y1="125.54" x2="224.38" y2="118.19" fill="#fff"/><path d="M228.62,126a.47.47,0,0,1-.39-.23L224,118.42a.47.47,0,0,1,.17-.63.45.45,0,0,1,.62.17l4.25,7.35a.45.45,0,0,1-.17.62A.39.39,0,0,1,228.62,126Z" fill="#231f20"/><rect x="162.28" y="160.73" width="160.34" height="65.02" fill="#fff"/><path d="M322.62,226.21H162.28a.46.46,0,0,1-.46-.46v-65a.46.46,0,0,1,.46-.46H322.62a.46.46,0,0,1,.45.46v65A.46.46,0,0,1,322.62,226.21Zm-159.89-.92H322.16v-64.1H162.73Z" fill="#231f20"/><rect x="153.68" y="149.8" width="177.52" height="10.93" fill="#fff"/><path d="M331.21,161.19H153.68a.46.46,0,0,1-.45-.46V149.8a.46.46,0,0,1,.45-.46H331.21a.46.46,0,0,1,.45.46v10.93A.46.46,0,0,1,331.21,161.19Zm-177.07-.92H330.75v-10H154.14Z" fill="#231f20"/><path d="M270,92.36s-5.7,3.56-5.29,4.64,3.14,1,3.14,1" fill="#fff"/><path d="M267.64,98.43c-.8,0-2.89-.11-3.34-1.28S267,93.7,269.77,92a.44.44,0,1,1,.47.75c-2.74,1.7-5.08,3.6-5.11,4.14.2.49,1.74.7,2.71.66a.45.45,0,0,1,.46.43.45.45,0,0,1-.43.46Z" fill="#231f20"/><path d="M272.88,83.68s-6.53,10.92-6,17.2,8.27,5.79,8.27,5.79L274,114.45s10.26.41,10.26,0,3.8-19.69,3.55-25S275.86,82.19,272.88,83.68Z" fill="#fff"/><path d="M281.27,115.09c-1.55,0-3.84,0-7.25-.19a.42.42,0,0,1-.33-.16.47.47,0,0,1-.1-.36l1-7.25c-1.85,0-7.76-.58-8.2-6.21-.5-6.36,5.83-17,6.1-17.48a.52.52,0,0,1,.19-.17c2.22-1.11,8.5-.48,12.41,1.81,2,1.19,3.14,2.7,3.22,4.37.2,4.29-2.16,17.29-3.17,22.84-.21,1.15-.38,2.06-.39,2.18a.59.59,0,0,1-.15.33C284.5,114.9,284.3,115.09,281.27,115.09ZM274.56,114c4,.15,8.27.23,9.32.1.05-.3.16-.86.36-2,.92-5,3.35-18.45,3.16-22.63-.08-1.7-1.55-2.91-2.78-3.62-3.68-2.17-9.51-2.65-11.42-1.84-.7,1.21-6.35,11.1-5.9,16.82s7.49,5.39,7.79,5.37a.45.45,0,0,1,.48.51Z" fill="#231f20"/><path d="M294.3,90.05c-.31-4.27-5.25-7-8.63-8.66-1.53-.75-3.3-1.17-4.77-2-.41-.22-.94-.15-1.2-.61-.52-.91.95-2.33-1.19-2.19-2.74.18-7,1.3-7.25,4.69-.18,2.75,2.89,3.77,4.93,4.79,2.32,1.16,1.74,4.63.58,11.25s1.84,9,1.84,9l7.19,1.49S294.8,96.75,294.3,90.05Z" fill="#fff"/><path d="M285.8,108.29h-.09l-7.2-1.49a.66.66,0,0,1-.19-.09c-.13-.11-3.19-2.65-2-9.45s1.62-9.79-.33-10.76l-.83-.4c-2-1-4.53-2.12-4.36-4.83.22-3.41,4.11-4.88,7.68-5.12a1.72,1.72,0,0,1,1.45.37,1.44,1.44,0,0,1,.17,1.27,1.32,1.32,0,0,0,0,.79c.06.11.18.15.46.23a2.37,2.37,0,0,1,.56.2,19,19,0,0,0,2.53,1.08,23.44,23.44,0,0,1,2.22.9c4,1.94,8.57,4.73,8.89,9h0c.5,6.81-8.23,17.65-8.6,18.11A.46.46,0,0,1,285.8,108.29Zm-7-2.37,6.8,1.41c1.23-1.58,8.67-11.31,8.23-17.25h0c-.29-3.84-4.63-6.44-8.39-8.28a22.57,22.57,0,0,0-2.13-.87,18.67,18.67,0,0,1-2.65-1.13,2.16,2.16,0,0,0-.36-.12,1.47,1.47,0,0,1-1-.66,1.94,1.94,0,0,1-.11-1.41,1.6,1.6,0,0,0,.05-.49h0s-.13-.11-.71-.06c-1.1.07-6.59.62-6.82,4.26-.14,2.08,2,3.07,3.83,3.94l.85.41c2.64,1.32,2,5,.82,11.74C276.23,103.06,278.39,105.5,278.82,105.92Z" fill="#231f20"/><path d="M274.91,95.58a7.37,7.37,0,0,1,3.49-2.21c1.38-.24,3.05.66,3.05,2.06a3.17,3.17,0,0,1-.3,1.2,9.1,9.1,0,0,1-6.37,5.18" fill="#fff"/><path d="M274.78,102.27a.45.45,0,0,1-.44-.36.44.44,0,0,1,.35-.54,8.63,8.63,0,0,0,6-4.93,2.66,2.66,0,0,0,.27-1,1.47,1.47,0,0,0-.57-1.09,2.53,2.53,0,0,0-1.95-.52,7,7,0,0,0-3.25,2.09.46.46,0,1,1-.63-.66,7.71,7.71,0,0,1,3.72-2.33,3.41,3.41,0,0,1,2.7.72,2.33,2.33,0,0,1,.89,1.79,3.46,3.46,0,0,1-.34,1.38,9.54,9.54,0,0,1-6.69,5.45Z" fill="#231f20"/><path d="M271,227.7a6.58,6.58,0,0,1-.91,4.15c-1.23,1.84-.95,7.19-.95,7.19h11.31s.31-6.49-.41-7.42-1-.15-1.21-1.28a13.51,13.51,0,0,1,.58-3.92Z" fill="#231f20"/><path d="M280.47,239.48H269.16a.45.45,0,0,1-.44-.42c0-.22-.27-5.52,1-7.45a6.23,6.23,0,0,0,.83-3.85.44.44,0,0,1,.37-.49l8.41-1.28a.43.43,0,0,1,.4.14.41.41,0,0,1,.09.41,12.79,12.79,0,0,0-.57,3.72c.06.31.11.38.12.38a1.76,1.76,0,0,1,1,.71c.76,1,.57,6.15.5,7.71A.44.44,0,0,1,280.47,239.48Zm-10.88-.88H280c.12-2.95,0-6.24-.33-6.71a.83.83,0,0,0-.51-.39c-.41-.13-.64-.33-.78-1.08a10.41,10.41,0,0,1,.41-3.46l-7.34,1.12a6.78,6.78,0,0,1-1,4C269.61,233.39,269.53,236.91,269.59,238.6Z" fill="#231f20"/><path d="M237.89,226.85s-.54,3.56-1.69,4.27-6.86,1.28-7.29,2.57a13.51,13.51,0,0,0,0,4.27h17.38V225.75Z" fill="#231f20"/><path d="M246.29,238.4H228.91a.43.43,0,0,1-.43-.38,13.73,13.73,0,0,1,0-4.47c.32-1,2.13-1.44,4.85-2.06a13.3,13.3,0,0,0,2.62-.74c.72-.44,1.3-2.67,1.49-4a.46.46,0,0,1,.38-.37l8.41-1.1a.43.43,0,0,1,.34.11.41.41,0,0,1,.15.33V238A.44.44,0,0,1,246.29,238.4Zm-17-.88h16.55V226.25l-7.58,1c-.17,1-.73,3.57-1.84,4.26a12.41,12.41,0,0,1-2.89.85c-1.41.32-4,.92-4.21,1.48A11.38,11.38,0,0,0,229.3,237.52Z" fill="#231f20"/><polygon points="270.11 229.21 280.47 229.21 294.05 180.59 272.77 176.03 270.11 229.21" fill="#fff"/><path d="M280.47,229.67H270.11a.48.48,0,0,1-.33-.15.45.45,0,0,1-.12-.33L272.32,176a.45.45,0,0,1,.17-.34.47.47,0,0,1,.38-.08l21.28,4.56a.42.42,0,0,1,.29.21.43.43,0,0,1,.05.35l-13.58,48.62A.47.47,0,0,1,280.47,229.67Zm-9.88-.92h9.53l13.36-47.81-20.28-4.35Z" fill="#231f20"/><path d="M270.68,167.29s-21,4.75-28,9.69c-3,2.12-5.54,51.67-5.54,51.67l9.25,1.12S254.73,189.33,258,188s20.32-.76,20.32-.76S283.79,172.45,270.68,167.29Z" fill="#fff"/><path d="M246.37,230.23h-.06l-9.24-1.12a.46.46,0,0,1-.4-.48c0-.12.64-12.54,1.63-25.05,2-25.52,3.54-26.57,4.1-27,7-4.94,27.32-9.57,28.18-9.76a.41.41,0,0,1,.27,0c13.37,5.25,7.92,20.38,7.86,20.53a.5.5,0,0,1-.44.3c-.17,0-17-.56-20.14.72-2.19.9-8.1,25.9-11.31,41.44A.47.47,0,0,1,246.37,230.23Zm-8.77-2,8.41,1c1.58-7.65,8.55-40.36,11.77-41.69s17.68-.88,20.18-.81a21.66,21.66,0,0,0,1-7.57,12.34,12.34,0,0,0-8.29-11.43c-1.83.42-21.11,5-27.73,9.59C240.87,178.79,238.58,209.14,237.6,228.24Z" fill="#231f20"/><path d="M311.48,134.24s7.26,11.83,6.84,14.53-4.85,3.25-15.39,3.55l-6.7-19.65Z" fill="#fff"/><path d="M302.93,152.77a.44.44,0,0,1-.43-.31l-6.7-19.64a.46.46,0,0,1,.48-.6l15.25,1.57a.45.45,0,0,1,.34.21c.75,1.23,7.34,12.05,6.9,14.84-.5,3.15-5.44,3.64-15.83,3.93Zm-6-19.57,6.35,18.65c9.81-.29,14.25-.83,14.62-3.15.29-1.84-3.78-9.32-6.66-14Z" fill="#231f20"/><path d="M245.61,136s-9.69,12.91-8.36,14.81,23.18,1.52,23.18,1.52L262.32,136Z" fill="#fff"/><path d="M255.28,152.79c-7.06,0-17.36-.26-18.4-1.76-1.42-2,6-12.26,8.36-15.35a.47.47,0,0,1,.37-.18h16.71a.45.45,0,0,1,.35.15.52.52,0,0,1,.11.36l-1.9,16.33a.45.45,0,0,1-.45.4C259.24,152.76,257.41,152.79,255.28,152.79Zm-9.44-16.38c-4.52,6.05-8.91,13.1-8.22,14.09s11.91,1.5,22.4,1.34l1.79-15.43Z" fill="#231f20"/><path d="M296.23,110.3s-25.64-3.42-32.48,0-21.09,27.93-21.09,27.93l18,4.53-2.84,38s1.14,6.49,22,6.49,21-2.56,21-2.56,4.85-29.64,3.14-45.6l10-3.12S308.49,116.29,296.23,110.3Z" fill="#687093"/><path d="M277.56,123.35h9A21.7,21.7,0,0,1,308.3,145v22.25a0,0,0,0,1,0,0H255.87a0,0,0,0,1,0,0V145A21.7,21.7,0,0,1,277.56,123.35Z" fill="#231f20"/><path d="M308.3,167.73H255.87a.44.44,0,0,1-.45-.44V145.05a22.17,22.17,0,0,1,22.14-22.14h9a22.16,22.16,0,0,1,22.14,22.14v22.24A.44.44,0,0,1,308.3,167.73Zm-52-.88h51.55v-21.8a21.29,21.29,0,0,0-21.26-21.26h-9a21.28,21.28,0,0,0-21.25,21.26Z" fill="#231f20"/><rect x="255.87" y="186.48" width="49.2" height="7.98" rx="3.43" fill="#231f20"/><path d="M301.64,194.9H259.29a3.87,3.87,0,0,1-3.87-3.87v-1.12a3.87,3.87,0,0,1,3.87-3.87h42.35a3.87,3.87,0,0,1,3.87,3.87V191A3.87,3.87,0,0,1,301.64,194.9Zm-42.35-8a3,3,0,0,0-3,3V191a3,3,0,0,0,3,3h42.35a3,3,0,0,0,3-3v-1.12a3,3,0,0,0-3-3Z" fill="#231f20"/><path d="M282.08,149.44s2.09,15.19,0,24.69S275.62,189,275.62,189H283a54.79,54.79,0,0,0,6.29-16.53c1.9-9.5,0-23,0-23Z" fill="#231f20"/><path d="M283,189.39h-7.39a.46.46,0,0,1-.4-.25.44.44,0,0,1,.06-.47A37.77,37.77,0,0,0,281.65,174c2.05-9.31,0-24.39,0-24.54a.48.48,0,0,1,.11-.35.41.41,0,0,1,.33-.15h7.22a.44.44,0,0,1,.44.38c0,.13,1.88,13.67,0,23.13a55.36,55.36,0,0,1-6.35,16.67A.44.44,0,0,1,283,189.39Zm-6.51-.88h6.26a55.11,55.11,0,0,0,6.11-16.17c1.68-8.44.33-20.21,0-22.46h-6.33c.34,2.71,1.8,15.85-.07,24.35A39.84,39.84,0,0,1,276.5,188.51Z" fill="#231f20"/><polygon points="260.62 192.09 255.87 244.51 259.48 244.51 266.31 190.47 260.62 192.09" fill="#231f20"/><path d="M259.48,245h-3.61a.44.44,0,0,1-.44-.48l4.75-52.43a.44.44,0,0,1,.31-.39l5.7-1.61a.41.41,0,0,1,.41.09.43.43,0,0,1,.15.39l-6.84,54A.44.44,0,0,1,259.48,245Zm-3.13-.88h2.74l6.7-53L261,192.43Z" fill="#231f20"/><polygon points="299.75 192.09 304.5 244.51 300.89 244.51 294.05 190.47 299.75 192.09" fill="#231f20"/><path d="M304.5,245h-3.61a.45.45,0,0,1-.44-.39l-6.84-54a.43.43,0,0,1,.15-.39.41.41,0,0,1,.41-.09l5.7,1.61a.46.46,0,0,1,.32.39l4.75,52.43a.41.41,0,0,1-.12.33A.44.44,0,0,1,304.5,245Zm-3.22-.88H304l-4.67-51.65-4.77-1.35Z" fill="#231f20"/><path d="M266.85,100.88a2.32,2.32,0,0,0,3.65-.41" fill="#fff"/><path d="M268.6,102.06a3.31,3.31,0,0,1-2.06-.86.44.44,0,1,1,.61-.64,2.36,2.36,0,0,0,1.6.61,2,2,0,0,0,1.39-1,.44.44,0,0,1,.72.52,2.83,2.83,0,0,1-2,1.32Z" fill="#231f20"/><ellipse cx="272.57" cy="90.13" rx="1.32" ry="0.58" transform="translate(114.96 330.08) rotate(-75)" fill="#231f20"/><path d="M93,58.73a5.39,5.39,0,0,1,.8-3.4c.72-.94,2.32-1.28,3.08-.36-.3-2.1,1.47-4.06,3.51-4.62a10.06,10.06,0,0,1,6.19.73,35.88,35.88,0,0,0,6,2.15,6.56,6.56,0,0,0,5.92-1.4c0,2.51,0,5.23-1.61,7.19a8.55,8.55,0,0,1-5,2.68c-1.89.41-3.84.52-5.71,1-.73.21-1.54.57-1.75,1.29a3.14,3.14,0,0,0,.23,1.67,5.54,5.54,0,0,1-2.5,6.06C94.16,76.35,93.05,63.24,93,58.73Z" fill="#fff"/><path d="M99.05,73.22a4,4,0,0,1-2-.55c-4.18-2.38-4.47-12-4.48-13.93h0a5.82,5.82,0,0,1,.9-3.71,2.92,2.92,0,0,1,2.2-1.1,2.43,2.43,0,0,1,.77.11,5.35,5.35,0,0,1,3.89-4.17,10.74,10.74,0,0,1,6.5.74c.56.22,1.12.46,1.68.69a21.76,21.76,0,0,0,4.18,1.44,6,6,0,0,0,5.47-1.26.5.5,0,0,1,.86.35c0,2.8-.1,5.48-1.72,7.5a9,9,0,0,1-5.3,2.86c-.82.17-1.65.3-2.45.41a27.59,27.59,0,0,0-3.24.61c-.81.23-1.28.55-1.4.95a2.11,2.11,0,0,0,.14,1.1l.09.3a6,6,0,0,1-2.73,6.63A6.76,6.76,0,0,1,99.05,73.22ZM95.67,54.93h0a1.91,1.91,0,0,0-1.43.71,5,5,0,0,0-.69,3.09h0c0,5,1.1,11.43,4,13.08,1.17.67,2.64.51,4.36-.49a5,5,0,0,0,2.27-5.5l-.08-.28a2.86,2.86,0,0,1-.15-1.65c.22-.78.91-1.31,2.1-1.64a28.38,28.38,0,0,1,3.36-.64c.78-.11,1.6-.23,2.38-.4a8,8,0,0,0,4.73-2.5c1.23-1.53,1.47-3.6,1.5-5.83a7.54,7.54,0,0,1-5.52.84,22.63,22.63,0,0,1-4.38-1.5c-.55-.23-1.1-.46-1.65-.67-2.41-.93-4.28-1.16-5.88-.72S97.12,53,97.4,54.89a.5.5,0,0,1-.3.53.49.49,0,0,1-.58-.13A1.06,1.06,0,0,0,95.67,54.93Z" fill="#231f20"/><path d="M121.84,86.5s16.2,28.28,18.38,33.25-7.45,16.44-11.17,13.65S121.84,86.5,121.84,86.5Z" fill="#231f20"/><path d="M90.78,234s-.64,4.16.32,5.76a17.08,17.08,0,0,1,2.24,7.35,8.31,8.31,0,0,1-6.08,2.77c-3.83,0-7.67-2.88-8.1-4.26s3.09-16.09,3.09-16.09Z" fill="#231f20"/><path d="M117.19,133.19l-18.47,5.12L94.44,84.9s15.3-3.62,19-1.92S117.19,133.19,117.19,133.19Z" fill="#231f20"/><path d="M98.72,138.81a.47.47,0,0,1-.28-.09.52.52,0,0,1-.22-.37L94,84.94a.49.49,0,0,1,.38-.52c.63-.15,15.5-3.65,19.31-1.89s4,42.51,4,50.66a.5.5,0,0,1-.36.48l-18.48,5.12ZM95,85.29l4.2,52.38,17.52-4.85c0-23.26-1.27-48.37-3.47-49.38C110.41,82.14,99.48,84.25,95,85.29Z" fill="#231f20"/><path d="M111,224.39V236.9l6,1.7-.14-2.56,2.7,2.7s16,2.88,15.95.75-1.7-3.3-3.73-4.37-7.88-4.37-7.88-4.37l-.86-9.16" fill="#231f20"/><path d="M82.38,138.24l-4.92,94.91s.47,3.47,8,3.9,6.78-1.34,6.78-1.34L104,166.09l4.83,61.84,16.26,1-3.23-97.48Z" fill="#fff"/><path d="M87.66,237.57c-.68,0-1.41,0-2.22-.07-7.82-.44-8.41-4.13-8.43-4.29l4.91-95a.46.46,0,0,1,.38-.43L121.76,131a.47.47,0,0,1,.36.1.42.42,0,0,1,.17.34l3.23,97.47a.45.45,0,0,1-.13.35.51.51,0,0,1-.35.13l-16.26-1a.45.45,0,0,1-.43-.42l-4.54-58.14L92.7,235.69a1,1,0,0,1-.18.73C92,237.19,90.38,237.57,87.66,237.57Zm-9.74-4.4s.65,3,7.57,3.42c4.74.27,5.93-.35,6.23-.63a.2.2,0,0,0,.08-.12.3.3,0,0,1,0-.21L103.53,166a.45.45,0,0,1,.47-.38.45.45,0,0,1,.43.43l4.8,61.44,15.37.95L121.4,132l-38.58,6.63-4.9,94.54Z" fill="#231f20"/><path d="M98.1,80.42s6,63.84,3.16,67.53-20.35,6.62-21.65-.55c-2.15-11.77-1-54.08,1.57-58.06C91.38,80.52,98.1,80.42,98.1,80.42Z" fill="#687093"/><path d="M121.84,86.5s9,58.54,7.34,60.24S114.55,150,112,148.31s-2.43-68.21-2.43-68.21A25.83,25.83,0,0,1,121.84,86.5Z" fill="#687093"/><path d="M109.08,78.94l.2,7.27s-.86,3.35-5.75,2.35-5.74-4.31-5.74-4.31l.12-13.57s2.57-4.57,1.23-12.34c0,0,6.81.94,15,1.56,0,0,.6,10.52.15,14.3S109.08,78.94,109.08,78.94Z" fill="#fff"/><path d="M105.23,89.25a8.68,8.68,0,0,1-1.8-.2c-5.15-1-6.09-4.53-6.12-4.68a.5.5,0,0,1,0-.12l.12-13.58a.5.5,0,0,1,.06-.24s2.47-4.52,1.18-12a.48.48,0,0,1,.13-.43.51.51,0,0,1,.43-.15c.07,0,6.89.95,15,1.56a.5.5,0,0,1,.46.47c0,.43.6,10.61.15,14.39-.41,3.45-4,4.73-5.19,5.07l.19,6.87a.68.68,0,0,1,0,.14S109,89.25,105.23,89.25Zm-6.94-5.07c.14.42,1.12,3,5.34,3.89,4,.83,5-1.5,5.14-1.92L108.58,79a.5.5,0,0,1,.4-.51s4.4-.94,4.81-4.31,0-11.75-.13-13.77c-6.46-.51-12-1.2-13.92-1.45,1,6.87-.94,11.12-1.33,11.88Z" fill="#231f20"/><path d="M100.19,70.21a3.11,3.11,0,0,0-1.14-1.66,5.66,5.66,0,0,0-1.73-.79,2.14,2.14,0,0,0-1-.15,2.1,2.1,0,0,0-.68.27,2.45,2.45,0,0,0-1.13,1.27,3,3,0,0,0,0,1.39A5.66,5.66,0,0,0,94.9,72a3.84,3.84,0,0,0,5.16,1.82" fill="#fff"/><path d="M98.38,74.71a4.5,4.5,0,0,1-1.45-.24,4.39,4.39,0,0,1-2.48-2.25A5.89,5.89,0,0,1,94,70.63,3.34,3.34,0,0,1,94,69a2.88,2.88,0,0,1,1.34-1.54,2.59,2.59,0,0,1,.87-.35,2.9,2.9,0,0,1,1.25.17,5.92,5.92,0,0,1,1.89.87,3.66,3.66,0,0,1,1.31,1.92.5.5,0,1,1-1,.27,2.67,2.67,0,0,0-1-1.39,5.12,5.12,0,0,0-1.58-.72,1.84,1.84,0,0,0-.8-.13,1.6,1.6,0,0,0-.5.21,2,2,0,0,0-.91,1,2.62,2.62,0,0,0,0,1.15,5.17,5.17,0,0,0,.39,1.33,3.34,3.34,0,0,0,4.49,1.59.5.5,0,1,1,.44.9A4.33,4.33,0,0,1,98.38,74.71Z" fill="#231f20"/><path d="M110.84,67.47s2.81,3.61,2.26,4.31-2.28.39-2.28.39" fill="#fff"/><path d="M111.67,72.75a4.82,4.82,0,0,1-.94-.09.5.5,0,0,1-.4-.58.51.51,0,0,1,.58-.4c.6.11,1.56.1,1.8-.21a13.89,13.89,0,0,0-2.26-3.69.5.5,0,1,1,.79-.61c2,2.6,2.78,4.25,2.25,4.93A2.33,2.33,0,0,1,111.67,72.75Z" fill="#231f20"/><ellipse cx="108.43" cy="66.04" rx="0.63" ry="0.89" transform="translate(-14.21 33.19) rotate(-16.35)" fill="#231f20"/><ellipse cx="112.61" cy="65.76" rx="0.63" ry="0.89" transform="translate(-13.96 34.36) rotate(-16.35)" fill="#231f20"/><path d="M111.79,74l-3.29-.08s-.42,2.33,1.3,2.92S111.79,74,111.79,74Z" fill="#fff"/><path d="M110.18,77.36a1.79,1.79,0,0,1-.54-.09c-1.69-.58-1.8-2.54-1.63-3.49a.48.48,0,0,1,.51-.41l3.28.08a.51.51,0,0,1,.49.54c0,.24-.22,2.41-1.31,3.13A1.42,1.42,0,0,1,110.18,77.36Zm-1.22-3a1.82,1.82,0,0,0,1,1.94.5.5,0,0,0,.47,0,3.09,3.09,0,0,0,.79-1.84Z" fill="#231f20"/><path d="M109.08,78.94s-3.78,0-5.54-1c0,0,1.48,4.31,5.59,5.38Z" fill="#231f20"/><path d="M109.13,83.82l-.13,0c-4.32-1.12-5.87-5.51-5.93-5.69a.5.5,0,0,1,.15-.55.52.52,0,0,1,.57,0c1.62.94,5.24.95,5.28.94h0a.49.49,0,0,1,.49.49l.05,4.37a.5.5,0,0,1-.19.4A.48.48,0,0,1,109.13,83.82Zm-4.6-4.94a8.09,8.09,0,0,0,4.09,3.76l0-3.21A16.93,16.93,0,0,1,104.53,78.88Z" fill="#231f20"/><path d="M77.34,131.93a.5.5,0,0,1-.06-1c.15,0,14.85-1.68,19.26-4.08a.5.5,0,0,1,.68.2.51.51,0,0,1-.2.68c-4.59,2.5-19,4.12-19.63,4.19Z" fill="#231f20"/><path d="M81.18,89.34s-28.61,39.71-16.36,49.95c11.24,9.39,36.1-6.2,36.1-6.2l-1.5-13.19s-19.66,10.65-20,5.69c-.46-7.29,9.17-17.25,9.17-17.25a13.31,13.31,0,0,0,.87-10.57A12.59,12.59,0,0,0,81.18,89.34Z" fill="#231f20"/><path d="M129.82,138.72H101.29a3.52,3.52,0,0,1-3.44-4.24L103.92,106a3.72,3.72,0,0,1,3.64-3h28.12a3.72,3.72,0,0,1,3.63,4.5l-6.05,28.44A3.51,3.51,0,0,1,129.82,138.72Z" fill="#fff"/><path d="M129.82,139.18H101.29a4,4,0,0,1-3.88-4.8l6.07-28.53a4.18,4.18,0,0,1,4.08-3.3h28.12a4.17,4.17,0,0,1,4.08,5l-6,28.45A4,4,0,0,1,129.82,139.18Zm-22.26-35.72a3.28,3.28,0,0,0-3.19,2.58L98.3,134.57a3.06,3.06,0,0,0,3,3.7h28.53a3.08,3.08,0,0,0,3-2.42l6.05-28.45a3.27,3.27,0,0,0-.66-2.73,3.23,3.23,0,0,0-2.53-1.21Z" fill="#231f20"/><path d="M95.42,124.4a6.12,6.12,0,0,1,.23-3,5.74,5.74,0,0,1,1.26-1.73,28.18,28.18,0,0,1,2.86-2.6,4,4,0,0,1,3.15-1.18,6.83,6.83,0,0,1-2.73,4.1,3.78,3.78,0,0,1,1.74-1.11c.45-.14,1.07-.12,1.26.32a1.06,1.06,0,0,1-.11.86,7.49,7.49,0,0,1-2.37,2.9l1.1-.68a2.33,2.33,0,0,1,.93-.4.79.79,0,0,1,.84.42,1,1,0,0,1-.08.75,3.68,3.68,0,0,1-1.37,1.65,3.29,3.29,0,0,1,1.39-.65,1.08,1.08,0,0,1,1.2.73,1.22,1.22,0,0,1-.17.81c-.81,1.58-2.76,1.76-3.7,3.08-.71,1-.38,2.05-1.83,2.65C95.44,132.82,95.62,126.46,95.42,124.4Z" fill="#fff"/><path d="M98,132.06a2.08,2.08,0,0,1-1.12-.31c-1.62-1-1.8-4.22-1.92-6.33,0-.38,0-.71-.07-1a6.62,6.62,0,0,1,.27-3.21,6.24,6.24,0,0,1,1.36-1.89,28.06,28.06,0,0,1,2.91-2.64,4.45,4.45,0,0,1,3.56-1.28.47.47,0,0,1,.32.21.52.52,0,0,1,.07.38,7.19,7.19,0,0,1-1,2.31,1.24,1.24,0,0,1,1.19.7,1.59,1.59,0,0,1-.11,1.27,9.13,9.13,0,0,1-.62,1.1,1.26,1.26,0,0,1,1.13.75,1.55,1.55,0,0,1-.09,1.13c0,.1-.09.2-.14.3a1.49,1.49,0,0,1,1.39,1.13,1.74,1.74,0,0,1-.21,1.14,5,5,0,0,1-2.19,2,4.62,4.62,0,0,0-1.56,1.19,3.54,3.54,0,0,0-.42.93,2.61,2.61,0,0,1-1.62,1.89A3,3,0,0,1,98,132.06Zm4.25-15.69a4.57,4.57,0,0,0-2.2,1.11A28.35,28.35,0,0,0,97.27,120a5.43,5.43,0,0,0-1.16,1.59,5.78,5.78,0,0,0-.19,2.73h0c0,.27,0,.62.07,1,.09,1.68.27,4.8,1.46,5.54a1.46,1.46,0,0,0,1.38,0,1.66,1.66,0,0,0,1-1.29,4.67,4.67,0,0,1,.56-1.19,5.44,5.44,0,0,1,1.88-1.48,4.1,4.1,0,0,0,1.79-1.54.7.7,0,0,0,.12-.48c0-.2-.36-.37-.66-.33a2.57,2.57,0,0,0-1,.48l-.12.09a.5.5,0,0,1-.56-.83l.11-.08a3.1,3.1,0,0,0,1.08-1.35c.1-.25.09-.34.08-.37a.33.33,0,0,0-.32-.11,2,2,0,0,0-.72.32l-1.1.68a.5.5,0,0,1-.56-.83,6.91,6.91,0,0,0,2.21-2.7c.13-.3.12-.41.11-.45s-.35-.14-.67,0a3.64,3.64,0,0,0-.7.31,7.08,7.08,0,0,1-.9.74.48.48,0,0,1-.65-.07.49.49,0,0,1,0-.66,4.25,4.25,0,0,1,.94-.81A6.26,6.26,0,0,0,102.28,116.37Z" fill="#231f20"/><path d="M138.87,122.42c-.14-1.92-.73-4-2.39-5a3.61,3.61,0,0,0-3.38-.07.71.71,0,0,0-.42.43c-.06.3.22.55.48.71a6.42,6.42,0,0,0,1.77.75,2.46,2.46,0,0,0-2.46,1.42A3.86,3.86,0,0,0,134.9,122a1.64,1.64,0,0,0-1.71.6c-.62.86-.13,1.1.55,1.62a1.42,1.42,0,0,0-.89.09.75.75,0,0,0-.45.71c0,.55.74.73,1.22,1a1.86,1.86,0,0,1,.84,1,4,4,0,0,0,.23.69c1,1.66,3.07.28,3.58-.88A9.63,9.63,0,0,0,138.87,122.42Z" fill="#fff"/><path d="M135.93,129a1.91,1.91,0,0,1-1.67-1,2.55,2.55,0,0,1-.22-.57,1.66,1.66,0,0,0-.06-.21,1.35,1.35,0,0,0-.61-.74l-.31-.16c-.47-.22-1.1-.52-1.16-1.23a1.25,1.25,0,0,1,.7-1.2c-.25-.37-.32-.86.18-1.56a2,2,0,0,1,.36-.4,4.34,4.34,0,0,1-1-.87.49.49,0,0,1-.08-.53,2.86,2.86,0,0,1,1.23-1.34l-.35-.2c-.75-.46-.77-1-.71-1.24a1.22,1.22,0,0,1,.67-.77,4.11,4.11,0,0,1,3.87.08c1.94,1.12,2.51,3.54,2.64,5.38h0a10.31,10.31,0,0,1-.64,4.64A3.53,3.53,0,0,1,136,129Zm-2.52-4.31a.69.69,0,0,0-.34.07.29.29,0,0,0-.18.21c0,.15.32.3.6.43l.38.19a2.39,2.39,0,0,1,1.06,1.28c0,.09,0,.18.08.27a1.22,1.22,0,0,0,.12.34.87.87,0,0,0,.86.52,2.52,2.52,0,0,0,1.82-1.35,9.24,9.24,0,0,0,.56-4.16h0c-.11-1.59-.58-3.68-2.14-4.58a3,3,0,0,0-2.9-.06,1.23,1.23,0,0,0-.16.1s.09.07.25.16a6.1,6.1,0,0,0,1.64.7.5.5,0,0,1-.19,1,2,2,0,0,0-1.78.84,3.4,3.4,0,0,0,1.87.88h0a.5.5,0,1,1-.12,1h0c-.63-.08-1,0-1.24.39s-.27.39.27.8l.18.13a.5.5,0,0,1,.16.59.49.49,0,0,1-.54.3Z" fill="#231f20"/></g></svg>